/* XPM */
static char *a85d2a0b016e4770b1a4df698abf5d92k4M8pvahgHJFCP2D[] = {
/* columns rows colors chars-per-pixel */
"64 64 254 2 ",
"   c #8B2807",
".  c #932501",
"X  c #9D2501",
"o  c #9C2B02",
"O  c #9C2D0A",
"+  c #942B08",
"@  c #9C320C",
"#  c #983209",
"$  c #9C3412",
"%  c #9D3915",
"&  c #9D3D1C",
"*  c #953514",
"=  c #8B360F",
"-  c #A32C03",
";  c #A42C07",
":  c #B42E04",
">  c #A53306",
",  c #AB3205",
"<  c #A3330B",
"1  c #AA340B",
"2  c #AA3B0E",
"3  c #A3390A",
"4  c #B23304",
"5  c #B9340A",
"6  c #B43A0C",
"7  c #BB3A0D",
"8  c #B73608",
"9  c #A43512",
"0  c #A43A14",
"q  c #AD3B14",
"w  c #A43B1A",
"e  c #AB3E1B",
"r  c #A93616",
"t  c #B43612",
"y  c #B33C13",
"u  c #BB3D14",
"i  c #B43E1B",
"p  c #BB3D18",
"a  c #A63C22",
"s  c #C53B0E",
"d  c #C43D12",
"f  c #CB3D14",
"g  c #C63D19",
"h  c #D43C13",
"j  c #AF410F",
"k  c #BB430C",
"l  c #AC431C",
"z  c #A9431A",
"x  c #B44115",
"c  c #BC4315",
"v  c #B3431C",
"b  c #BC431A",
"n  c #B8491D",
"m  c #B9511C",
"M  c #9D4825",
"N  c #AC4523",
"B  c #AD4B25",
"V  c #AD4B2A",
"C  c #A9472A",
"Z  c #B34422",
"A  c #B34B24",
"S  c #BC4C24",
"D  c #B44C2A",
"F  c #BB4D2A",
"G  c #BA4523",
"H  c #B55126",
"J  c #BC5224",
"K  c #B4522D",
"L  c #BB522B",
"P  c #BD5A2D",
"I  c #B64D31",
"U  c #AA5234",
"Y  c #AB553A",
"T  c #B35333",
"R  c #BC5433",
"E  c #BD5B35",
"W  c #BC573B",
"Q  c #BD5A3A",
"!  c #B45A3A",
"~  c #AA512B",
"^  c #BF6239",
"/  c #C5420D",
"(  c #C34414",
")  c #CA4414",
"_  c #C54A16",
"`  c #CB4917",
"'  c #C4451B",
"]  c #CB451B",
"[  c #C44A1D",
"{  c #CB4A1C",
"}  c #D14A1C",
"|  c #D24519",
" . c #CC501C",
".. c #C44C24",
"X. c #CB4B22",
"o. c #C34E2A",
"O. c #C74724",
"+. c #D14B22",
"@. c #D14722",
"#. c #C25125",
"$. c #CC5224",
"%. c #C2532B",
"&. c #CB542B",
"*. c #C65B2C",
"=. c #CA5B2D",
"-. c #CC5923",
";. c #D55324",
":. c #DA5424",
">. c #D4542B",
",. c #DA552A",
"<. c #D35A2B",
"1. c #D95A28",
"2. c #C45633",
"3. c #C45C33",
"4. c #CB5C34",
"5. c #C45D3B",
"6. c #CB5D3A",
"7. c #CB5535",
"8. c #D25C35",
"9. c #DB5E35",
"0. c #D35D3A",
"q. c #DB5E3A",
"w. c #D45632",
"e. c #E45A2C",
"r. c #E35E35",
"t. c #E85A34",
"y. c #F25E34",
"u. c #F45E2B",
"i. c #C6602E",
"p. c #C46236",
"a. c #CB6234",
"s. c #C5623C",
"d. c #CC623C",
"f. c #CC693E",
"g. c #D26235",
"h. c #DD6135",
"j. c #D3623B",
"k. c #DB633B",
"l. c #D66939",
"z. c #DC632F",
"x. c #EB642E",
"c. c #E6652E",
"v. c #F2632C",
"b. c #E56434",
"n. c #EC6434",
"m. c #E66934",
"M. c #EB6936",
"N. c #E5653B",
"B. c #EB643A",
"V. c #E5683B",
"C. c #EA693B",
"Z. c #F26334",
"A. c #F2653A",
"S. c #F06A3D",
"D. c #F26837",
"F. c #B65D41",
"G. c #BB694B",
"H. c #BB6547",
"J. c #BD724D",
"K. c #C75D42",
"L. c #D25F41",
"P. c #C56342",
"I. c #CB6443",
"U. c #CB6A45",
"Y. c #C8694C",
"T. c #D26343",
"R. c #D96E44",
"E. c #D36D4C",
"W. c #DD6F4C",
"Q. c #D86643",
"!. c #CB724D",
"~. c #C7784E",
"^. c #DD7245",
"/. c #D3724D",
"(. c #DA724D",
"). c #D7764B",
"_. c #C86C53",
"`. c #D76D53",
"'. c #C67455",
"]. c #CC7555",
"[. c #CD7956",
"{. c #CC755A",
"}. c #CD7A5C",
"|. c #C67759",
" X c #D47454",
".X c #DA7353",
"XX c #D47A56",
"oX c #DB7A55",
"OX c #D3755A",
"+X c #D37B5C",
"@X c #DB7B5C",
"#X c #DB7658",
"$X c #E36B43",
"%X c #E36E4B",
"&X c #EB6841",
"*X c #F16A41",
"=X c #E2784D",
"-X c #E57E5D",
";X c #E67B56",
":X c #F37E57",
">X c #CE7B61",
",X c #D47C62",
"<X c #DB7C62",
"1X c #D77461",
"2X c #E57F63",
"3X c #EE7E61",
"4X c #F37F62",
"5X c #D6815D",
"6X c #EC8356",
"7X c #E4835C",
"8X c #ED845C",
"9X c #ED885D",
"0X c #E98857",
"qX c #F28455",
"wX c #F2845D",
"eX c #F8855D",
"rX c #F4895D",
"tX c #F9895D",
"yX c #EB814F",
"uX c #DE8C6E",
"iX c #D48265",
"pX c #DE8D77",
"aX c #DE947A",
"sX c #D78B6D",
"dX c #E48261",
"fX c #ED8462",
"gX c #EC8964",
"hX c #E48B6C",
"jX c #EA886A",
"kX c #F38562",
"lX c #FA8462",
"zX c #F38963",
"xX c #F38569",
"cX c #F88967",
"vX c #E48C74",
"bX c #EC987A",
"nX c #F9A57D",
"mX c #EAA57E",
"MX c #DF9E82",
"NX c #EC9B84",
"BX c #F79E85",
"VX c #EEA383",
"CX c #EDA389",
"ZX c #F4A485",
"AX c #FAA484",
"SX c #FDA987",
"DX c #F5A58B",
"FX c #FBA58B",
"GX c #F5A98B",
"HX c #FDAA8B",
"JX c #F4A987",
"KX c #FBA991",
"LX c #F8A892",
"PX c #FFB098",
/* pixels */
"v.b.s.nXZXJXAXjX4.&XM.m.h.[ M.m.M.k.s.AXFXAXFXhX7.C.n.M.k.(.SXAXBXKX_.C 2.#.L N /.jXfXgXiX}.SXnXnXnX/.T.N.&XM.<.1.M.Z.D.b.] C.c.",
"/ ( v  X+X+X@XI.y O.b [ c , [ ( ( b l  X+X}.iXH.e ..c [ v F @X+X#X#XN # 9 ; q o S d.3.I.F.Y +X'.~.XXD F O.' { 6 6 _ ( ' b 1 ..[ ",
"/ ) b F N a T.7.0.0.G 4.j.8.k...%.j.6.I.F.Y >X|.XXoXR 5.4.6.I.D t X.' ..b 1 } ) ) ' v  XOX}.iXG.T I.6.6.7.G 8.4.4.d.T  X@X X@XY.",
"e.n.B.$XT.6.cXeXeXwXI.-XwXwXlX%XW.kXkXfX<X,XHXJXZXAX+XdXkXkXgXR.<.n.b.M.h.{ Z.v.v.b.6.BXFXFXLXvX XfXkXxX4XQ.zXrX6XgX'.NXFXFXDXNX",
"e.n.A.&XQ.4.rX6X8X9XU.-XfXkXkXW.R.9XwXkXjXOXDXVXJXSX+X@X9X9X9X).-.M.n.&Xk.$.Z.v.x.b.s.AXFXFXLXvX XfXkXkX-XT.wX:XwXgX|.CXDXDXDXNX",
"d } g ' b y g.a.i.p.B Q I.6.T.F H f.4.4.6.R @X+X'.[.T R d.4.a.J 6  .c ' i 1 ] ) ) [ l  X#XOX,XH.K d.3.6.2.A j.8.4.5.U {.}.}.,X_.",
"<.8.u ' { ( { 6 m a.3.s.Q A d.4.3.d.u c ] u O.r K U.6.6.4.2 c / ( { y 6.j.0.j...y [ ( ..Z z P.3.a.d.A 2.6.4.0.o.o 0 # & * & s.4.",
"qXtX0.q.n.n.M.;.^.wXwXfXdXI.wXwX8XzX8.b.n.x.A.>.W.kX4XlXeX&.c.n.n.N.2.8XwXwXkX(.w.*XA.B.k.6.zX8X6XwXI.7XkXkXwX%Xe L F L B 2.tX:X",
"8XzX6.k.B.n.M.<.V.eXwXkX2XI.9X9XkXkX4.k.m.c.M.>.$XzX4XlXwX&.b.n.n.N.*.8XwX8XrX(.w.B.A.n.h.j.9X8X8XkXE.2XfXzXzXR.l H L L A 2.tX:X",
"4.d.v b [ ( [ 6 ..0.6.I.K.C P.s.K.I.z l m k [ 6 o.d.2.6.Q 0 ..O.] ' q 2.3.3.g.[ 7 ] g X.b l s.3.6.6.B W I.2.s.J # 0 @ 0 @ w j.j.",
"%.j.4.4.3.v a.4.4.6.I _.1X{.,XG.H.<X[.[.~.~ p.2.4.d.T ].+X{.+X5.o , > 2 # # _ / ( ' v (. X X+XH.K I.5.6.5.# 3 1 > < . $ 0 0 % + ",
";XwXwX8X7Xf.9XwXkXfXOXBXFXFXHXpXpXFXJXVXmX~.gXwX8XfX].NXDXGXLXvXl S #.S l n m.x.n.N.P.AXSXFXGXpX XgXzXfXdXN S S #.#.w D F R I D ",
"=X9X9X8X7XI.wXwXkXdX'.NXFXAXAXuXaXKXAXAXbX!.fXwXkXfX{.NXDXDXGXuXB %.%.S n n m.x.n.N.K.BXFXFXKXhX/.9X9X7X7XB L #.o.F w I F F F Z ",
"%.j.a.s.5.A j.0.I.I.Y {.5X X@XP.P.#X X@X XK I.6.6.K.T {.+X|.iXG.  w 9 < < , ` | ] ..N OX1XOX<XP.#.g.p.U.! * % @ 0 %   * % O q - ",
"' O.O @ 0 @ r . S 5.E s.E 0 ..b ' S 0 R 6.R I.K F d.P p.! U }.{.}.+XT v X.) ] 8 X < @ w $ # ..( ] ' 0 !.[.|.,X_.G.,X}.+X].l [ ( ",
"n.*XG A F F %.v (.zX9X9X6X*.B.t.b.V.4.-XzX8XgX/.R.rX9X0X7X+XSXZXDXHX].j.n.y.C.>.l L L D A n B.n.Z.b.6.AXAXHXDXpXaXLXVXZXnX3.b.n.",
"c.M.S A F #.F l ).9X8X6X6X*.b.n.n.V.*.8XwX9X8X).(.9X0X0X5X+XAXAXDXFX!.j.n.v.M.&.l L H L v G *Xy.Z.B.6.BXAXFXBXpXaXDXDXHXAX5.b.n.",
") { > > 2 < 9 . D I.3.a.4.y ) | ) { t 7.j.d.j.L L U.a.d.5.E oX#X@X@XF b ) ) $.q   z # 0 < , } f ) { v .X#X@X<XY.G.,X}.{. Xl O.{ ",
"d ] ( c c q 6.6.6.I.e v [ ( ] 7 5 | d ] u y 4.4.4.0.i v ' b O.6 t X.( ( u S .X X X#XB v ' ) } s 7 _ c ..v z 4.2.p.s.z * 0 @ 1 - ",
"e.B.D.M.k.4.zXwX4XcX6.Q.V.B.B.,.:.n.Z.n.q.0.lXrXwXlX0.q.B.n.B.,.:.n.n.B.j..XHXFXFXSXE.j.b.M.m.;.;.V.b.V.k.0.tXqXyX8XE N L L L Z ",
"e.B.n.b.9.4.cXkX4XzX6.k.b.n.B.;.;.M.n.n.q.0.lXwXrXeX8.h.n.n.B.;.<.b.n.N.0.E.FXZXAXSX/.g.m.m.M.1.>.*XC.N.q.0.eXqXwX9X5.B K L K N ",
"g @.' X.Z e T.6.0.0.y c ) ) +.s 7 ) ( ..Z N I.3.4.8.u c ( ' $.t 2 S b S A D +X].[.XXH x [ ( ] 5 5 ] g ' p u 9.9.a.d.0 @ 0 < r < ",
"f ] e  X+XOX@Xs.q X.) ) ( , ) s ) ] v /.[.[.+XP.q [ ( { b D @X].[.XXR 2.6.6.I.T ~ s.4.8.>.7 ] ) | | 5 ' { ' X.8 6 ..b n b , ) ) ",
"Z.N.5.AXGXJXAXgX7.B.n.x.b.[ M.n.Z.B.I.BXJXJXDXjX4.V.n.m.d.!.HXZXZXHX+X@XzXqX8X(..X8XwXlX:X&.B.n.y.Z.] b.n.b.B.,.>.C.b.M.h.X.D.y.",
"y.V.^ ZXGXZXAXgX4.C.n.n.V.O.N.B.A.N.I.AXZXJXDXjX7.V.n.M.j. XSXZXAXFX+X@XwXwXwX(..XxX3XcX3X7.N.b.n.n.` c.m.M.n.,.;.B.b.n.9.X.B.Z.",
") { z !.+X'.#XP.q ..' ] ' , ' ' ] ] i /.}.].+XI.v { ) { c S @X X#X#XT E s.2.d.F F I.W P.W e S ' ) ` 4 ( ( ( X.6 y X.b O.v 1 O.O.",
"s ) ( [ v + 0 9 9 0 . < 1 1 q - 6 [ c o.A + w $ < > - ' ' ' ..r F d.3.s.s.B s.4.6.I.U '.}.].@Xd.u { ( { x S =X X XOXW E.#X X{.Y.",
"t.B.A.n.k.q F F F R & B S #.S e =.C.b.V.Q.v F S S S v N.B.B.B.>.$XwX9X9X7XU.wX6X6X8X'.VXZXJXFXjX7.M.n.C.8./.SXZXZXDXiXBXSXSXCXMX",
"t.y.A.n.V.x F %.I R & V F %.L v $.m.b.b.N.y S J #.#.u 9.b.n.n.<.^.9X9X7XoXI.rXqXqX9X~.ZXZXZXDXhX7.B.n.M.0..XHXZXDXHXiXBXAXAXVXaX",
"g @.' ' b . < < $ %   $ 0 < < o 7 ` ( ( ' X 1 > - 1 - c X.( { 6 #.d.s.U.E A a.&.<.a.A !.].].iXY.q ' ( [ v D @X].{.OX! /.). X}.J.",
"8.j.v 5.j.6.d.L L I.6.d.2.r ' ) ) ) : ( X.' X.6 u { ( [ b X 1 1 < @ + 5.5.6.j...6 O.b o.G e d.3.6.j.S 4.4.a.d.F e F b o.v l d.5.",
"6XzXP.dX8XkXzXE.(.9XqXwX;X*.B.Z.Z.A.+.r.b.B.*X>.,.b.M.b.k.e o.o.#.F B fXkXrXwX$X>.*XB.B.Q.0.lXwXkXkXI.;XqXqXqX%X8.N.B.C.k.0.lXwX",
"wXkXU.7X9XwXfXE.W.kXwXwX6X=.B.Z.n.B.+.r.A.n.B.,.,.B.B.N.k.i S o.L S N fXrXqXwX%Xw.N.n.B.9.8.zX8XkXkXE.-XwXqXrX$X>.N.B.B.h.j.rXqX",
"5.s.C E d.4.j.%.o.k.8.j.=.6 ) ) ] } 5 d ] ) X.7 6 X.' ' S O 9 < @ < @ s.6.d.T.D q ..' ] ' c j.4.6.6.A 2.d.3.j.#.u ' ' X.i q 4.*.",
"Y.+X].XX/.l ' f f ) , b { ( ) 8 8 ] ( { c x g.=.4.d.0 # 0 < 9 + # 0 @ w + C <X]. XoXG x ( ( { y S s.3.s.E # % @ 9 < < 4.4.4.f.P ",
"bXJXFXZXAXs.B.Z.u.Z.{ h.B.n.M.1.;.M.m.m.g.4.rX6X8XzXE B S F F z l L S L C _.PXDXDXSX Xj.m.M.n.;.^.9X8X9XdXV L F F F D fXwX8X9XoX",
"bXJXDXDXZXK.N.n.Z.D.X.h.B.B.V.;.;.M.m.V.j.d.zXwX6XfXE K L %.L l l %.#.L V _.HXVXZXSX/.d.V.M.n.<.R.8X6X6X6XA F F F F D 8XwXwX8XoX",
"U.oX+X,X>XC S ' ) ) 4 ' @.] +.5 8 ] ( { b i 0.0.j.T.w $ # @ 0 . O e < < # B @X+X].@XD v ..( [ x J l.a.4.4.; 1 1 1 2 < 4.g.4.d.%.",
"c n 0 W P.Q 4...7 ` ) ] b : | f ) ) : d ] ' O.t X r < 0 @ w s.4.6.6.i b ( ( ..0 A T.4.4.2.Z 4.4.*.4.q x { ( ] 7 7 { ( [ b 2 [ ..",
"c.M.4.-XfXgXfX^.<.n.n.n.k.X.A.y.y.A.+.r.B.B.&Xw.p o.o.L N Q zX8XkXkX0.h.n.c.M.<.%XzXqXrX-XT.kXkXqXrX8.h.B.n.n.:.;.M.n.m.h.X.B.B.",
"Z.B.7.;X8XfXzX^.<.b.c.m.h...A.y.y.B.X.9.b.C.N.>.u ..o.L B Q cXfXfXzX0.9.n.n.C.&.W.8XwXkX2XI.xXfXwXzX0.q.B.n.B.:.;.m.x.M.b.+.A.y.",
") ' y 6.I.s.I.D q ..( _ _ 4 } ] ' O.2 x [ c [ 7 - 6 > 1 @ w 0.L.6.I.v b [ ( o.e L I.5.5.5.B I.5.6.T.Z v X.' { 4 8 _ ( ] ( : | h ",
"*.8.7.6.W Y OXOX X(.S c ) ( { y d.oX/.)./.l [ ( ( ` , c [ ' O.t F T.4.4.2.K  X].].+X! R d.4.d.L L 6.2.0.6.O 1 1 1 > o c ) ) | f ",
"=XwXwXkX2X,XFXFXSXSX(.j.n.n.m.*.hXFXnXnXnX3.k.b.n.A.{ h.b.M.N.w.%XkXwXwX5X+XFXDXDXHX+XoXwXqX8X(..XgXkXkXfXA F S S J v k.b.n.n.,.",
"=XrXwXkX<X,XFXZXJXSX X0.B.n.m.*.uXLXZXJXAXP.$XB.n.n.X.b.m.m.n.>.%XkXrXwXoX+XFXZXZXAX+X7XrXrXrX=X/.gX9X9XfXD L S S S v k.V.V.C.9.",
"P a.2.I.! ! >X}.|.}.U N o.( _ 2 P.iX[.'.!.N G ' ] ] 4 c [ ( { u S a.4.j.5.R @X X#XoXL 3.4.3.d.D T P.E 5.5.O < 2 , 1 X b X.' [ c ",
"@ % & }.}.}.}.H.G.iX}.>X{.T 8.8.6.d.& * w @ 9 ; ..0.4.a.3.# 1 - 1 2 o x b c o.t t O.( [ v K +XOX X@XK N o.[ [ 8 7 { ( ' b o > > ",
"F I Y DXFXJXZXuXuXGXDXDXNX{.4XlX:XrXE B D L F Z %XkX9X7X7XB S #.S o.v k.C.n.N.>.,.B.n.B.0. XFXZXAXAXE.d.N.B.B.,.:.A.n.b.k.v S S ",
"F I Y DXFXFXZXpXsXGXDXFXBX].fXwXqXzXR B L F %.Z W.zX9X9X7XB S #.S #.v h.n.A.B.,.>.C.n.B.0.#XSXZXAXSXE.0.M.n.n.1.:.B.B.B.k.i o...",
"< 9 %  X X X+XG.G.,X].XX!.K d.6.4.d.0 # 0 @ 0 O F d.6.d.3.@ 1 - < 2 X u ] ) ] 7 u [ c X.i F #X].XXoXS p ) ) ] 8 s } ] ] b X 1 1 ",
"d { ( $.v l d.Q 5.P.B 5.d.3.s.K D T.s.5.5.B 6.6.j.0.i v ' ( { 7 u X.' X.( - , , 3 3 # 6.4.4.d.K q ..] } ) : | ( ) ] : ' { ( ( 7 ",
"e.n.x.x.1.8.rX9XfXfXI.8XwXwXgX/.E.fX9X9X7XU.fXkXwXeX0.k.C.n.B.;.,.C.B.N.k.j m m m H V gXwXwXwXR.<.B.n.n.r.{ M.b.b.B.X.b.b.m.b.9.",
"e.M.x.x.z.=.wX8XkXxXT.3XwXqXzX).(.fXwXkX7XU.gX8X6XrX4.g.M.B.B.,.;.B.b.N.Q.l J J J L B dXgX9X9X^.>.B.n.B.N.X.V.V.B.B.X.b.m.m.n.,.",
"7 ( k _ c j d.6.5.K.C 5.K.2.d.H A p.4.4.2.Z 4.*.i.g.j c [ ' ..t t ..c S N   % # O 9 O 2.j.4.d.L y X.u O.v < ..O.] ] 4 ( ` _ } d ",
"' ' t =.a.3.d.D P.1X_.OX_.V s.p.*.a.y i O.g X.7 4 _ k ( x F #X X!.XX! ].+X].,XP.e O.d ] c . @ O O 9 O 5.d.4.j...7 ] ) ) k 4 ] f ",
"B.$X7.;XwXwXgX XhXFXFXFXBX].8X6X6XwXj.q.&XB.A.;.:.x.x.C.6. XHXZXJXGXiXZXDXDXKXvX7.&XZ.v.b.x L L L F D fX8X9XzX%X,.n.n.x.z.{ A.B.",
"B.N.&.:XwXwXgX XhXHXJXZXZX!.9XqX6XtX4.q.N.b.C.:.:.n.x.n.j.E.SXJXZXGXiXCXGXDXDXhX6.V.x.Z.b.v F F o.S A 8X9X8XrX$X>.n.n.x.b.{ B.B.",
") ] t 8.8.6.I.U H.iX|.}.[.T d.4.4.j.v S X.' { 4 8 { ) { b F oX X+X,XF.'.+X].@XI.u X.) ( c . 0 9 , 1 > 4.d.a.j...6 { ( _ c , X.] ",
"d ] ( ' x A XX'.'.}.Y ! P.2.6.F . 0 @ < @ 0 a.a.i.a.x b ' ' ..q F d.3.d.E w S c / ( - O 0 @ & + 6 ] ( [ v z 4.4.8.8.v =.a.=.j.o.",
",.n.n.V.j./.SXAXJXGX5XiXfXwXkX.XN R L L B E 9X9X0XrX4.j.N.b.B.>.%XkXwXrX;X%.M.x.M.M.S A L D R l >.C.n.C.k.d.wXwXwXwXI.7X8X8XwX;X",
"e.n.n.V.d.!.HXZXJXAX+X7X8XwXfXE.N L S D N Q zXkXwXlX0.k.B.n.B.>.%XfXkXwX8X&.b.n.n.B.S D L F R v 7.V.N.N.0.6.zXwXkXkXT.fX9X9XzX=X",
"f ] ( o.N U ,X{.#X XR *.4.4.j.L o < @ z * M I.6.0.q.u b ( ( X.q I I.s.3.6.y { } ] ' < @ 0 @ 0   0 S ' X.b u j.=.4.0.Z 4.6.4.g.#.",
") ( v /.OX}.,XH.e o.O.' ' , ' c ] [ z ].|.{.,X5.r { ) ( b D oX XOX+X~ = w @ < X S 6.6.4.5.R @XOXXXoXF p ' d { 6 8 X.' ' b , ' ( ",
"M.m.d.AXFXFXFXjX6.N.S.b.B.X.M.n.Z.B.s.AXGXJXSXjX8.B.Z.M.j./.SXJXAXHXJ.M K P R A .XkXzX9X-X@XSXAXAXSXW.q.S.n.n.;.:.A.D.B.N.{ C.M."
};
