/* XPM */
static char *_fe752e7dc8340e9ce73ead3f9c175e2uteYVpkCG63LVn3y[] = {
/* columns rows colors chars-per-pixel */
"64 64 173 2 ",
"   c #132B17",
".  c #17241A",
"X  c #1A271D",
"o  c #162D1D",
"O  c #1A2B1E",
"+  c #17301B",
"@  c #1E2D22",
"#  c #1E3223",
"$  c #212E24",
"%  c #223226",
"&  c #223926",
"*  c #25352A",
"=  c #29362C",
"-  c #26392B",
";  c #2A3A2E",
":  c #303E2F",
">  c #2D3C31",
",  c #313E34",
"<  c #26442A",
"1  c #2A412E",
"2  c #2E4133",
"3  c #324236",
"4  c #324A37",
"5  c #354439",
"6  c #39463B",
"7  c #364A3B",
"8  c #3A4A3E",
"9  c #34523A",
"0  c #3A523E",
"q  c #3D4D41",
"w  c #3D5143",
"e  c #3D5940",
"r  c #414E44",
"t  c #425246",
"y  c #435B46",
"u  c #455449",
"i  c #49564C",
"p  c #465A4B",
"a  c #4A5A4E",
"s  c #4D5C52",
"d  c #515E54",
"f  c #45614A",
"g  c #4A624E",
"h  c #4D6253",
"j  c #4F6B53",
"k  c #526256",
"l  c #526A55",
"z  c #55645A",
"x  c #59665C",
"c  c #566A5B",
"v  c #5A6A5E",
"b  c #56715B",
"n  c #5B725E",
"m  c #5B795F",
"M  c #616D5F",
"N  c #5D6D62",
"B  c #5D7363",
"V  c #5E7963",
"C  c #616E63",
"Z  c #627266",
"A  c #627965",
"S  c #65746A",
"D  c #69766C",
"F  c #657A6A",
"G  c #6A7A6E",
"H  c #6D7C72",
"J  c #717E74",
"K  c #628068",
"L  c #6A816E",
"P  c #6D8373",
"I  c #6F8B75",
"U  c #728175",
"Y  c #728975",
"T  c #75857A",
"R  c #79867B",
"E  c #758A7B",
"W  c #7A897E",
"Q  c #77907B",
"!  c #7B917E",
"~  c #808E7F",
"^  c #7D8C82",
"/  c #7D9283",
"(  c #818E84",
")  c #829286",
"_  c #819A86",
"`  c #85958A",
"'  c #89968C",
"]  c #869A8B",
"[  c #8A9A8E",
"{  c #8D9C92",
"}  c #919E94",
"|  c #85A18B",
" . c #8BA18E",
".. c #8EA294",
"X. c #8FAA97",
"o. c #92A296",
"O. c #93AA95",
"+. c #95A499",
"@. c #99A69B",
"#. c #96AA9A",
"$. c #9AAA9E",
"%. c #97B29F",
"&. c #9BB29F",
"*. c #9BABA0",
"=. c #9DAAA0",
"-. c #9EABA1",
";. c #9CACA1",
":. c #9CACA2",
">. c #9DACA1",
",. c #9DB2A2",
"<. c #A1AEA4",
"1. c #A2AFA5",
"2. c #A1AEA4",
"3. c #A3B0A6",
"4. c #A2B2A7",
"5. c #A4B1A7",
"6. c #A3B5A5",
"7. c #A2B1A6",
"8. c #A2BAA6",
"9. c #A3B3A9",
"0. c #A5B2A8",
"q. c #A6B3A9",
"w. c #A7B4AA",
"e. c #A5B7AB",
"r. c #A5B5AA",
"t. c #A6B6AC",
"y. c #A5B4AA",
"u. c #A8B5AB",
"i. c #A9B6AC",
"p. c #AAB7AD",
"a. c #A9B6AC",
"s. c #A7B9AD",
"d. c #A5BBAB",
"f. c #ABB9AA",
"g. c #A9B9AE",
"h. c #AAB8AE",
"j. c #ACB9AF",
"k. c #ABBCAC",
"l. c #AABAAE",
"z. c #ABBBB1",
"x. c #ADBAB0",
"c. c #AABCB0",
"v. c #ADBDB2",
"b. c #AFBCB2",
"n. c #ADBDB2",
"m. c #AFBFB5",
"M. c #ADBCB2",
"N. c #B0BDB3",
"B. c #B1BEB4",
"V. c #B2BFB5",
"C. c #B1BEB3",
"Z. c #ADC2AF",
"A. c #ADC1B2",
"S. c #AFC8B3",
"D. c #B2C3B3",
"F. c #B1C1B7",
"G. c #B1C1B6",
"H. c #B4C1B7",
"J. c #B2C1B6",
"K. c #B1C9B3",
"L. c #B6C6BB",
"P. c #B5C4B9",
"I. c #BAC7BD",
"U. c #B9C5BC",
"Y. c #B6CBBA",
"T. c #BBC8BE",
"R. c #BAC9BD",
"E. c #BDCCC1",
"W. c #BED1C1",
"Q. c #C1CEC4",
"!. c #C2D1C6",
"~. c #C4D3C8",
"^. c #C8D5CB",
/* pixels */
"H T F h v k u N H ` o.;.t.o.U N Z G v 5 5 U $.o.' ` U U ^ { S 3 ( ' } +.@.@.} ` W H a , J W H T { @.` W T ) k a N v x x 8 > k D ",
"s.e.c.G.G.' i g.g.G.z.9.t.G.z.m.n.L.n.N T g.4.g.g.t.g.n.4.n.{ x e.B.B.4.=.a.n.j.x.G.Z ' j.0.x.x.=.$.0.n.e.j.T { p.3.U.$.z ` 4.p.",
";.{ +.$.;.$.d Z @.` ( { +.+.( ` ^ ` $.^ ^ *.$.[ o.$.+.o.o.;.{ T =.@.$.=.=.+.+.+.{ @.H } 2.{ $.@.4.$.( ^ ' ' s D @.' +.( a =.0.+.",
"+.+.o.o.^ s 6 t T x k D W W ^ ( W ` R G S o.+.e.;.o.*.4.o.{ ) S @.` ^ [ @.$.@.@.0.D r x H z x S v t 5 D S 6 5 5 5 s d q 3 H ` +.",
"G U v 6 > S +.v , 8 i i x x T U G G U k q ^ H H G ^ ^ U G q ; t H D C x Z J J Z u 3 * , q z v s r T C @ 3 i 2.' d 3 > 3 C i 6 x ",
"6 6 6 G ` ) k a v v k 6 5 , k N Z s Z u ; t v a a 8 3 3 3 ; 3 t a d k i 8 , = $ $ 6 } 0.0.x.p.H.B.a.U.S ; g.@.x.T.x.0.C =.C.T 6 ",
"- ; t u 8 A W 6.D.g.D.f.@.J , * 3 q > > q @ * ; * s ^ ) G t t s , , q d k s z S s s { ) [ o.` ^ { { [ D ` 2.=.+.o.2.} q a N r $ ",
"U 0 a E $.Z.8.$. .] #.#.7.D.G S N z s N ^ W v s 3 q H T S U e.G.4.=.2.x.P.H.x.x.G.W r Z C C S Z N H s 5 s W ^ J H J s v { [ ^ ' ",
"k.$.a h n Y Y n l c A a q ; h n.g.G.G.4.g.z.;.n.o.' a % U m.e.@.=.a.2.$.$.+.@.$.@.S * ; i 8 > 5 3 ; = = @ = > 8 q * 5 ' n.0.B.P.",
",.) n / e # f g 4 c # 4 v +.c [ ;.o.o.` ) +.;.;.4.g.T 3 5 Z { +.@.{ ' ) ( ^ T T S 6 Z D d U U x T ( J ) ( d N 2.2.G u ` @.o.2.@.",
"E F h / b p A V 4 B ..,.g.A.^ h G R U v z S U ) H 8 8 T R > 3 N U x s q 5 3 % * * r ^ J W 2.@.0.0.p.x.} } H s +.0.2.v S H G W ' ",
"t w 2 - L S._ b y l L P / T h > q 3 * > t 6 = 3 x U g.4.n.n.Z ; $ = ; 3 z U ` =.o.' S q 5 8 3 > z S C 5 > = > 5 v J t 6 u u r u ",
"2 5 ; Z $./ Y g 4 0 1 2 8 i r Z v S T ) [ *.[ x U ) ^ { +.$.L.[ t ` @.p.~.P.3.$.C.x.j.U.g.$.o.D ; , t x { g.$.J 3 $ ; % @ X % $ ",
"0.;.H - t 8 ; A #. .#.6.4.g.P.N.G.G.G.n.+.{ 4.m.s * 5 t v ^ ) k ) E.0.+.2.+.@.=.@.@.@.} { =.p.3.i ( U.a.2.2.@.G.N S +.` W ^ { @.",
"0.$.j.( a t y Y ! O.&.2.+.@.@.@.+.;.o.[ ) T R ^ a a Z k 5 % @ * U 2.@.} @.+.@.} ` H H S v H D a 8 o.+.@.2.@.2.} i T p.4.n.B.p.0.",
"+.2.+.e.E.7.a v c W #.@.2.=.2.@.>.[ W T S v z 3 ^ H.G.2.G.+.^ ` z D D Z S H H C k C C N v x d t a +.$.[ ) o.+.[ v T +.$.o.+.$.+.",
"+.;.{ ^ { $.N a z N G H J ( ) W ^ L Z c h a 3 ) ' R } +.@.k.j.$.4.k q a u u 8 > 8 > ; 5 8 3 5 q = t N t 0 p 7 j y V L _ #.#.@.+.",
"W S c N N s % @ > 5 s Z N z v Z B B p h 0 - k U k x D [ 2.' D Z { s % % ; > k { @.U k ; 6 N W *.G 8 = 3 a y 1 y e l V n F B F F ",
"5 > * * = t Z E N u 6 8 8 8 q t 8 2 - O 2 ; 8 q 5 8 r s s t 8 5 ; z H H ) m.E.t.e.P.G.N H G.L.P.T.n.g.Z.Y.K.O.! g 2 & + 2 # % * ",
"> w N ] 4.n.T.E.L.L.n.2.' H s > 6 5 T G T o.$.+.T Z C J Z s 8 t ) G.L.G.L.;.+.*.o.+.;.N T @.o.*.+.;.4.$.o.#.#.] l A Q / ) B k t ",
"h +.L.e.;.4.4.+.$.;.$.o.@.x.U.x.x $.L.g.g.,.;.0.p.E.T.j.U.P.S s n.;.o.*.o.+.e.o.;.$.[ N ) +.o.{ 0.$.o.#.$.#.! g g #.S.8.A.~.m.N ",
"H ] $.+.@.[ ` o.' ` ` ^ ( ` ( T x } @.7.+...$.{ { ' +.+.2.>.z s ) ^ ` $.o.^ R ^ T H Z N R H S S S ( } [ W W G y L ..#.$.+.@.o.H ",
"a v E H G Z N S U R ^ T G G U U z ^ ^ T T H Z H D G ( ( R { S x H k N G S S N s x S v t a N S v C x v v s 8 ; % u z T U ) +.^ d ",
"3 # u k Z S x s q u s k x v s 6 = 5 6 u s k k s u t q i s s > q a q i s x k q 5 5 > * = > > 3 8 6 > > > 3 a G o.t 2 N z d q = , ",
"{ H 7 * * % = % v W a > = , a J } J x > * > > # q z s i q q N N 3 3 q % ; 3 k G k k x N k 8 t q J ( s r 3 v G U U 3 > ; 6 Z T +.",
"P.E.s.` T ^ ` ) T n.L.Z Z 2.Q.B.x.T.T.>.:.{ N u 0.U.P.U.U.m.T.m.g.g.g.` u { !.L.L.g.L.m.e.T.n.s N s D H.g.H q t 6 3 r H 3.!.Q.U.",
";.:.9.A.L.z.;.e.k S ' H x.x.+.+.$.a.n.f.c.s./ N ` @.$.@.@.+.;.4.$.4.e.o.N ' 4.;.+.>.$.{ *.g.+.N 3 ^ n.+.>.T.g.L.@.i } E.@.=.2.2.",
"+...#.+.{ ) ^ { U t 8 S J ( ' ;.@.} +.$.{ E B k [ +.{ ' $.$.[ ^ { ' ^ ^ U U R o.{ W G H U T H z T g.+.$.z.o.*.@.3.J J +.4.@.} @.",
"] ^ / ` ' ) T ) ) > 3 k x i C D H U P F l 7 4 w F S N Z U H N N N N v H k N N N v Z N s a N d > v Z W ` W W [ { [ G R } ) W ' ' ",
"T U T T G N Z W Z > t X 3 , 6 ; 3 * 3 - 4 E d.P 2 5 3 6 3 % % > % > 5 5 * 3 u 6 > 3 q s u > @ 5 > - * 5 5 3 q 8 6 = a v D R D H ",
"w k k s z N s 6 3 > v { W { ' { ' o.Z 4 E %.X.V - p k Z G D N 8 v ^ { ` o.` [ ) ) H u ; 3 z v Z 8. .) F F w ; k a S a , , i v i ",
"* ; % - ; % * * s Z s s H ^ +.o.^ Z a e F c B h / Y.W.L.G.P.a.Z @.E.g.g.e.G.g.G.n.E.W S z.g.S [ K.K.K.A.n.P +.L.P.D.P.o.S x t : ",
"q U +.9.;.` [ 4.z.T.g.^ k r r 3 = 5 t g F h 0 E 8.,.%.[ $.@.@.G R } @.} +.=.@.@.$.' ( N 2.' x +.*.{ { $.$.N H +.+.o.$.g.G.E.G.z ",
"p ] 4.;.9.g.t.4.+.@.o.n.U.G.g.S G R.A.K. .l 7 P &. . . .[ [ @.D R +.$.2.2.o.} { ( z 6 8 H k W [ S S G H U z H o.$.9.+.$.$.+.$.S ",
"s ` :.+.+.+.+.o.;.$.@.$.o.=.2.) Z { ,.#.[ L g g F L F v Z C R C H ) W ` ( D D D a 3 C d ; k k 8 8 q 5 ; * ; i v { $.{ ' ^ T U t ",
"k H E { >.;.*.*.+.$.[ @.4.@.+.^ U ` ` E Y Y y 7 F c Z c M M x 8 d x k x z q ; % % H e.U.D 5 5 x s t t N ) [ N * 8 z k ; 5 q 8 > ",
"> a c Z G H W ) [ S N Z ( +.W S t q a u w # a 8 1 2 q 3 t 6 % r t r 6 * ; r z W i a r T ( x p.T.P.L.T.E.E.T.n.4.s > U ^ ' g.9.s ",
"t u q q u u a u s a i , 3 x k 3 ) ^ u ; ; W g.#.G w ; ; v R ^ j.H.2.o.` @.j.@.@.2.o.N > r x ' +.@.$.;.+.o.+.;.z.[ v n.P.$.4.;.N ",
"- * # ; ; % > 8 q q $ H ( > ; 5 N D z 8 s 7 3 c S a z x u v ( ' o.2.x.p.a.$.^ W ^ H S v 5 d ( $.;.*.>.{ $.+.' ^ H t H W v S H t ",
"Z Z S E ] { @.;.;.g.) u W ) 6 d s i Z @.n.+.` > ; *.Q.H.=.v > > i a s S ) ` T D s t o.^.p.z 3 x ) ) ^ v H H Z k q s 8 8 a z s k ",
"n.g.e.g.t.4.>.o.W ` t.Z . = ^ E.U.L.Q.T.x.g.e.H s =.=.@.j.U.j.J u i , ; r z u 8 S P.B.2.U.x.H > = > ; 8 8 ; > = k U k +.T.E.n.L.",
"@.+.+.@.o.o.{ ^ W U G 8 u ' p.4.@.o.2.3.} ( ) G Z } $.;.@.o.n.B.Q.P.U.2.8 X s +.~.2.+.@.2.3.x.e.+.v ^ *.` T W 4.S > T ) o.e.+.$.",
"$...$.$.' R H H Z z 6 ^ s W +.2.7.o.[ 7.3.=.^ z S ` $.;.+.@.2.+.' ' o.' x t 3.n.$.+.a.@.@.@.@.=.4.U ' g.G.G.e.g.*.a { H S U $.o.",
"H P ^ U S H S v s 5 ) G.T Z T W o.$.$.#.{ ' S q s C W { #.#.[ ) T W ` ) Z S W $.{ +.( S ' 2.o.+.) v S { { o.>.{ ^ t N z S Z N S ",
"c h k z k u 5 3 % s +.o.` d H C B G H P S S s 8 ; a N k v G S N S G D x N ; t x a x v N C J G N s 8 t a S ^ S s q ^ S 5 3 u a k ",
"2 7 2 2 3 > u Z R 3 > s 3 5 > s k p u u 6 > 5 s u ; @ % * % * 3 = = 5 q s C 3 ; ; $ $ > 5 r i r ; ^ n.R 3 5 u > x 4.*.$.[ k q * ",
"p *.9.+.@.>.m.g.n.n.H S @.0.H = 3 ; t z G ` >.L.m.+.o.#.+.o.U 6 k ( $.C.Q.L.L.p.x.} J q r > * 3 +.Z k z 8 z ^ t 3 3 u t u q 8 8 ",
"N e.9.>.e.+.$.+.+.;.E.G.p.=.U.U = G R.R.g.e.e.$.{ ( [ #.#.Y.R.T Z x.x.2.@.0.p.B.2.g.0.a [ D.) 3 O 3 P / G q > ^ n.S 5 s T ^ o.T ",
"U ` $.@.*.@.$.$.$.@.$.+.+.=.+.) i ~ ` +.$.+...+.$.) W R W W $.H G } } +.2.{ 2.+.@.@.+.S n ,.O.y E d.Y.d.E.$.a @.0.p.p.p.V.0.4.U ",
"H Z ) @.+.{ $.+.+.{ o.+.o.[ U k t G ) #.#.#.,.7.$.o.~ ( ' W U z H W G D { 0.@.2.=.+.o.k l | L j O.8.,...@.@.N W } 2.2.o.$.} +.k ",
"p c N N U H S S H H G Z N S N u 8 T S S Y / [ ^ ` [ ' W J S v 5 l v s z N ( } { } T v 1 y Y b j B P L / E T s C D G R ) } @.) t ",
"* > 5 2 3 3 q 3 3 3 3 3 5 3 , ; , 6 a g w w u s z i d k k u t 3 ; 3 q t ; q d 3 8 2 * & 0 b m g b b p p w 8 $ r s q u t 6 x u ; ",
"+...+.o.H 2 3 u z G N i x ) [ J v % ;   7 Y p 2 % = % ; > % > N ) 8 # # t i > = 2 q w 7 &   < 9 0 P ,.#...+.o.x.p.W W ) z $ q T ",
"c.A.9.,.[ i N g.m.z.t.n.H.x.p.j.k.7.$.F B g.W.E 3 q i o...E w 7 p 8 l ) E.G.) k > { Y..._ | K f g L d.d.9.g.p.2.2.x.H.C.@.s ;.R.",
"+.o.@.,.^ s G ' +.$.+.o.+.o.o.$.;.#.8.%.p p %.p l $.T.Q.c.!.,.p 3 { g.,.@.;.e.S q W 6.d.A.8._ I g P o.@.+.+.=.+.} @.o.} } a [ o.",
"` ^ S Z S t k U ` +.$.@.2.;.} ) o.,.#.! v w p 3 T $.4.o.:.+.P.s.G 6.$.[ ) G r > 8 T [ ..)  .8._ g / P F T ) ( J J H D H W z S T ",
"2 7 > 7 8 t 8 k N N Z H W R S z N ) / c B 4 c h Z ^ ) ` o.9.{ T a G x > = % , N u 3 q t p B / Y t y a k a t q 5 r 6 r u i , = 8 ",
"` E a # % 8 q * % = ; > 5 q 5 * % ; 3 & 2 F F p t Z z Z W P ` F 8 % 3 G } @.3.p.g.+.` S a w u 8 5 O % ; u v s r > u S k d z C G ",
"9.L.c.H i 8 5 N S N N H [ } G q k v h 2 F E h 8 q - 6 3 > 7 s s [ $.H.T.C.a.3.@.x.p.j.j.T.D.3.+.v Z ) { e.L.L.g.U ` U.x.B.C.C.n.",
"$...+.9.G.[ u g.m.m.n.g.e.0.g.D.k.A.f.P s o h n.e.e.+.G T G * B T.C.2.@.@.@.$.=.+.+.@.' [ } #.$.Z 6.e.4.$.{ ;.>.^ J +.} $.+.@.$.",
"+.e.+.[ e.t.S [ $.@.+.+.@.@.$.;.$.o.6.] & F 4.` $.+.$.C.g.C.o.B $.} o.$.+.} o.[ ( H D v N S G k z 6.$.$.;.;.+.+.H U =.@.2.;.$.@.",
"` ^ S Z H Z S P ` o.$.+.o.@.@.+.o.#.W Z l ] v v W o.$.) N Z o.S v H G v D H Z l s l S N z z z q Z o.[ W ^ o.^ o.G G T H H U W W ",
"8 q q 8 = * t p z Z G S D D S N C M v 8 8 c u k x D G d d z v a > p u p v z u h a t q 5 w w t q 5 i Z k k z u k t t 8 t u 8 3 3 ",
"- # > 2 ; t * > > ; = ; > > , 3 3 , ; 3 - % 2 ; ; ; ; 6 3 3 = > 8 > * - - 2 2 - - ; > - 5 - * > 3 * 3 ; 5 ; 5 > > 6 $ ; = = = = "
};
