/* XPM */
static char *result[] = {
/* columns rows colors chars-per-pixel */
"91 118 91 1 ",
"  c black",
". c #070707",
"X c #0B0B0B",
"o c #170F07",
"O c #1F170B",
"+ c #131313",
"@ c #1B1B1B",
"# c #2F1B0B",
"$ c #2B230F",
"% c #372313",
"& c #332B13",
"* c #3F2F17",
"= c #3F2B1B",
"- c #232323",
"; c #272727",
": c #2F2F2F",
"> c #373737",
", c gray23",
"< c #432F1B",
"1 c #43331B",
"2 c #4B371B",
"3 c #533F1F",
"4 c #473323",
"5 c #4F3B23",
"6 c #4F3B27",
"7 c #4F3B2B",
"8 c #533F2F",
"9 c #5F4323",
"0 c #5B472B",
"q c #574333",
"w c #5F4B37",
"e c #6B4727",
"r c #774F2B",
"t c #7F532F",
"y c #675333",
"u c #775F3F",
"i c #434343",
"p c gray28",
"a c #4B4B4B",
"s c gray31",
"d c gray34",
"f c #5B5B5B",
"g c #6F5743",
"h c #775F4B",
"j c gray39",
"k c gray42",
"l c #6F6F6F",
"z c #777777",
"x c gray50",
"c c #875733",
"v c #8F5F37",
"b c #9B633B",
"n c #A36B3F",
"m c #836B4B",
"M c #8F7753",
"N c #AB6F43",
"B c #B37347",
"V c #BF7B4B",
"C c #CB7F4F",
"Z c #9F8363",
"A c #CF8353",
"S c #D78B5B",
"D c #DF9363",
"F c #E79B6B",
"G c #EFA373",
"H c #F7AB7B",
"J c #838383",
"K c #8B8B8B",
"L c #939393",
"P c #979797",
"I c #9F9F9F",
"U c #BFA78F",
"Y c #A7A7A7",
"T c gray67",
"R c gray70",
"E c gray75",
"W c #EB9797",
"Q c #FFB383",
"! c #FFBB93",
"~ c #FFBF9B",
"^ c #F3A3A3",
"/ c #FFC7A7",
"( c #FFCFB3",
") c gray78",
"_ c LightGray",
"` c gray86",
"' c #DFDFDF",
"] c #E7E7E7",
"[ c #EFEFEF",
"{ c white",
"} c None",
/* pixels */
"}}}}}}}}}}}}}}}}}}}}}}}}}}}}}}}}}}}}}}}}}}}}}}}}}}}}}}}}}}}}}}}}}}}}}}}}}}}}}}}}}}}}}}}}}}}",
"}}}}}}}}}}}}}}}}}}}}}}}}}}}}}}}}}}}}}}}}}}}}}}}}}}}}}}}}}}}}}}}}}}}}}}}}}}}}}}}}}}}}}}}}}}}",
"}}}}}}}}}}}}}}}}}}}}}}}}}}}}}}}}}}}}}}}}}}}}}}}}}}}}}}}}}}}}}}}}}}}}}}}}}}}}}}}}}}}}}}}}}}}",
"}}}}}}}}}}}}}}}}}}}}}}}}}}}}}}}}}}}}}}}}}}}}}}}}}}}}}}}}}}}}}}}}}}}}}}}}}}}}}}}}}}}}}}}}}}}",
"}}}}}}}}}}}}}}}}}}}}}}}}}}}}}}}}}}}}}}}}}}}}}}}}}}}}}}}}}}}}}}}}}}}}}}}}}}}}}}}}}}}}}}}}}}}",
"}}}}}}}}}}}}}}}}}}}}}}}}}}}}}}}}}}}}}}}}}}}}}}}}}}}}}}}}}}}}}}}}}}}}}}}}}}}}}}}}}}}}}}}}}}}",
"}}}}}}}}}}}}}}}}}}}}}}}}}}}}}}}}}}}}}}}}}}}}}}}}}}}}}}}}}}}}}}}}}}}}}}}}}}}}}}}}}}}}}}}}}}}",
"}}}}}}}}}}}}}}}}}}}}}}}}}}}}}}}}}}}}}}}}}}}}}}}}}}}}}}}}}}}}}}}}}}}}}}}}}}}}}}}}}}}}}}}}}}}",
"}}}}}}}}}}}}}}}}}}}}}}}}}}}}}}}}}}}}}}}}}}}}}}}}}}}}}}}}}}}}}}}}}}}}}}}}}}}}}}}}}}}}}}}}}}}",
"}}}}}}}}}}}}}}}}}}}}}}}}}}}}}}}}}}}}}}}}}}}}}}}}}}}}}}}}}}}}}}}}}}}}}}}}}}}}}}}}}}}}}}}}}}}",
"}}}}}}}}}}}}}}}}}}}}}}}}}}}}}}}}}}}}}}}}}}}}}}}}}}}}}}}}}}}}}}}}}}}}}}}}}}}}}}}}}}}}}}}}}}}",
"}}}}}}}}}}}}}}}}}}}}}}}}}}}}}}}}}}}}}}}}}}}}}}}}}}}}}}}}}}}}}}}}}}}}}}}}}}}}}}}}}}}}}}}}}}}",
"}}}}}}}}}}}}}}}}}}}}}}}}}}}}}}}}}}}}}}}}}}}}}}}}}}}}}}}}}}}}}}}}}}}}}}}}}}}}}}}}}}}}}}}}}}}",
"}}}}}}}}}}}}}}}}}}}}}}}}}}}}}}}}}}}}}}}}}}}}}}}}}}}}}}}}}}}}}}}}}}}}}}}}}}}}}}}}}}}}}}}}}}}",
"}}}}}}}}}}}}}}}}}}}}}}}}}}}}}}}}}}}}}}}}}}}}}}}}}}}}}}}}}}}}}}}}}}}}}}}}}}}}}}}}}}}}}}}}}}}",
"}}}}}}}}}}}}}}}}}}}}}}}}}}}}}}}}}}}}}}}}}}}}}}}}}}}}}}}}}}}}}}}}}}}}}}}}}}}}}}}}}}}}}}}}}}}",
"}}}}}}}}}}}}}}}}}}}}}}}}}}}}}}}}}}}}}}}}}}}}}}}}}}}}}}}}}}}}}}}}}}}}}}}}}}}}}}}}}}}}}}}}}}}",
"}}}}}}}}}}}}}}}}}}}}}}}}}}}}}}}}}}}}}}}}}}}}}}}}}}}}}}}}}}}}}}}}}}}}}}}}}}}}}}}}}}}}}}}}}}}",
"}}}}}}}}}}}}}}}}}}}}}}}}}}}}}}}}}}}}}}}}}}}}}}}}}}}}}}}}}}}}}}}}}}}}}}}}}}}}}}}}}}}}}}}}}}}",
"}}}}}}}}}}}}}}}}}}}}}}}}}}}}}}}}}}}}}}}}}}}}}}}}}}}}}}}}}}}}}}}}}}}}}}}}}}}}}}}}}}}}}}}}}}}",
"}}}}}}}}}}}}}}}}}}}}}}}}}}}}}}}}}}}}}}}}}}}}}}}}}}}}}}}}}}}}}}}}}}}}}}}}}}}}}}}}}}}}}}}}}}}",
"}}}}}}}}}}}}}}}}}}}}}}}}}}}}}}}}}}}}}}}}}}}}}}}}}}}}}}}}}}}}}}}}}}}}}}}}}}}}}}}}}}}}}}}}}}}",
"}}}}}}}}}}}}}}}}}}}}}}}}}}}}}}}}}}}}}}}}}}}}}}}}}}}}}}}}}}}}}}}}}}}}}}}}}}}}}}}}}}}}}}}}}}}",
"}}}}}}}}}}}}}}}}}}}}}}}}}}}}}}}}}}}}}}}}}}}}}}}}}}}}}}}}}}}}}}}}}}}}}}}}}}}}}}}}}}}}}}}}}}}",
"}}}}}}}}}}}}}}}}}}}}}}}}}}}}}}}}}}}}}}}}}}}}}}}}}}}}}}}}}}}}}}}}}}}}}}}}}}}}}}}}}}}}}}}}}}}",
"}}}}}}}}}}}}}}}}}}}}}}}}}}}}}}}}}}}}}}}}}}}}}}}}}}}}}}}}}}}}}}}}}}}}}}}}}}}}}}}}}}}}}}}}}}}",
"}}}}}}}}}}}}}}}}}}}}}}}}}}}}}}}}}}}}}}}}}}}}}}}}}}}}}}}}}}}}}}}}}}}}}}}}}}}}}}}}}}}}}}}}}}}",
"}}}}}}}}}}}}}}}}}}}}}}}}}}}}}}}}}}}}}}}}}}}}}}}}}}}}}}}}}}}}}}}}}}}}}}}}}}}}}}}}}}}}}}}}}}}",
"}}}}}}}}}}}}}}}}}}}}}}}}}}}}}}}}}}}}}}}}}}}}}}}}}}}}}}}}}}}}}}}}}}}}}}}}}}}}}}}}}}}}}}}}}}}",
"}}}}}}}}}}}}}}}}}}}}}}}}}}}}}}}}}}}}}}}}}}}}}}}}}}}}}}}}}}}}}}}}}}}}}}}}}}}}}}}}}}}}}}}}}}}",
"}}}}}}}}}}}}}}}}}}}}}}}}}}}}}}}}}}}}}}}}}}}}}}}}}}}}}}}}}}}}}}}}}}}}}}}}}}}}}}}}}}}}}}}}}}}",
"}}}}}}}}}}}}}}}}}}}}}}}}}}}}}}}}}}}}}}}}}}}}}}}}}}}}}}}}}}}}}}}}}}}}}}}}}}}}}}}}}}}}}}}}}}}",
"}}}}}}}}}}}}}}}}}}}}}}}}}}}}}}}}}}}}}}}}}}}}}}}}}}}}}}}}}}}}}}}}}}}}}}}}}}}}}}}}}}}}}}}}}}}",
"}}}}}}}}}}}}}}}}}}}}}}}}}}}}}}}}}}}}}}}}}}}}}}}}}}}}}}}}}}}}}}}}}}}}}}}}}}}}}}}}}}}}}}}}}}}",
"}}}}}}}}}}}}}}}}}}}}}}}}}}}}}}}}}}}}}}}}}}}}}}}}}}}}}}}}}}}}}}}}}}}}}}}}}}}}}}}}}}}}}}}}}}}",
"}}}}}}}}}}}}}}}}}}}}}}}}}}}}}}}}}}}}}}}}}}}}}}}}}}}}}}}}}}}}}}}}}}}}}}}}}}}}}}}}}}}}}}}}}}}",
"}}}}}}}}}}}}}}}}}}}}}}}}}}}}}}}}}}}}}}}}}}}}}}}}}}}}}}}}}}}}}}}}}}}}}}}}}}}}}}}}}}}}}}}}}}}",
"}}}}}}}}}}}}}}}}}}}}}}}}}}}}}}}}}}}}}}}}}}}}}}}}}}}}}}}}}}}}}}}}}}}}}}}}}}}}}}}}}}}}}}}}}}}",
"}}}}}}}}}}}}}}}}}}}}}}}}}}}}}}}}}}}}}}}}}}}}}}}}}}}}}}}}}}}}}}}}}}}}}}}}}}}}}}}}}}}}}}}}}}}",
"}}}}}}}}}}}}}}}}}}}}}}}}}}}}}}}}}}}}}}}}}}}}}}}}}}}}}}}}}}}}}}}}}}}}}}}}}}}}}}}}}}}}}}}}}}}",
"}}}}}}}}}}}}}}}}}}}}}}}}}}}}}}}}}}}}}}}}}}}}}}}}}}}}}}}}}}}}}}}}}}}}}}}}}}}}}}}}}}}}}}}}}}}",
"}}}}}}}}}}}}}}}}}}}}}}}}}}}}}}}}}}}}}}}}}}}}}}}}}}}}}}}}}}}}}}}}}}}}}}}}}}}}}}}}}}}}}}}}}}}",
"}}}}}}}}}}}}}}}}}}}}}}}}}}}}}}}}}}}}}}}}}}}}}}}}}}}}}}}}}}}}}}}}}}}}}}}}}}}}}}}}}}}}}}}}}}}",
"}}}}}}}}}}}}}}}}}}}}}}}}}}}}}}}}}}}}}}}}}}}}}}}}}}}}}}}}}}}}}}}}}}}}}}}}}}}}}}}}}}}}}}}}}}}",
"}}}}}}}}}}}}}}}}}}}}}}}}}}}}}}}}}}}}}}}}}}}}}}}}}}}}}}}}}}}}}}}}}}}}}}}}}}}}}}}}}}}}}}}}}}}",
"}}}}}}}}}}}}}}}}}}}}}}}}}}}}}}}}}}}}}}}}}}}}}}}}Xs+}}}}}}}}}}}}}}}}}}}}}}}}}}}}}}}}}}}}}}}}",
"}}}}}}}}}}}}}}}}}}}}}}}}}}}}}}}}}}}}}}}}}}}}}}} -dsX}}}}}}}}}}}}}}}}}}}}}}}}}}}}}}}}}}}}}}}",
"}}}}}}}}}}}}}}}}}}}}}}}}}}}}}}}}}}}}}}}}}}}}}}X;xPKjX}}}}}}}}}}}}}}}}}}}}}}}}}}}}}}}}}}}}}}",
"}}}}}}}}}}}}}}}}}}}}}}}}}}}}}}}}}}}}}}}}}}}}}+dlJPKzs@}}}}}}}}}}}}}}}}}}}}}}}}}}}}}}}}}}}}}",
"}}}}}}}}}}}}}}}}}}}}}}}}}}}}}}}}}}}}}}}}}}}}+:dlJPKzdi@}}}}}}}}}}}}}}}}}}}}}}}}}}}}}}}}}}}}",
"}}}}}}}}}}}}}}}}}}}}}}}}}}}}}}}}}}}}}}}}}}}.@>dlJPKzfi-}}}}}}}}}}}}}}}}}}}}}}}}}}}}}}}}}}}}",
"}}}}}}}}}}}}}}}}}}}}}}}}}}}}}}}}}}}}}}}}}}}.@,dlJTJzfi-+}}}}}}}}}}}}}}}}}}}}}}}}}}}}}}}}}}}",
"}}}}}}}}}}}}}}}}}}}}}}}}}}}}}}}}}}}}}}}}}}}+@,flJ]Jzfi;+ }}}}}}}}}}}}}}}}}}}}}}}}}}}}}}}}}}",
"}}}}}}}}}}}}}}}}}}}}}}}}}}}}}}}}}}}}}}}}}}X@-,jzJ{Kzjp;++}}}}}}}}}}}}}}}}}}}}}}}}}}}}}}}}}}",
"}}}}}}}}}}}}}}}}}}}}}}}}}}}}}}}}}}}}}}}}}}.+;ijlJ[Kzjp:+-}}}}}}}}}}}}}}}}}}}}}}}}}}}}}}}}}}",
"}}}}}}}}}}}}}}}}}}}}}}}}}}}}}}}}}}}}}}}}}} +;ijlx]Kzjp:+@}}}}}}}}}}}}}}}}}}}}}}}}}}}}}}}}}}",
"}}}}}}}}}}}}}}}}}}}}}}}}}}}}}}}}}}}}}}}}}}.+;pjlx)Klja:@+}}}}}}}}}}}}}}}}}}}}}}}}}}}}}}}}}}",
"}}}}}}}}}}}}}}}}}}}}}}}}}}}}}}}}}}}}}}}}}}@+;ajlx)Kljs>@X}}}}}}}}}}}}}}}}}}}}}}}}}}}}}}}}}}",
"}}}}}}}}}}}}}}}}}}}}}}}}}}}}}}}}}}}}}}}}}.-@;aflzYJlja>@X}}}}}}}}}}}}}}}}}}}}}}}}}}}}}}}}}}",
"}}}}}}}}}}}}}}}}}}}}}}}}}}}}}}}}}}}}}}}}}+@@>sflxLJlja>@X}}}}}}}}}}}}}}}}}}}}}}}}}}}}}}}}}}",
"}}}}}}}}}}}}}}}}}}}}}}}}}}}}}}}}}}}}}}}}}:X@>aflzKxlfs>@X@}}}}}}}}}}}}}}}}}}}}}}}}}}}}}}}}}",
"}}}}}}}}}}}}}}}}}}}}}}}}}}}}}}}}}}}}}}}}>:X@>aflxPJkfs,-+-:}}}}}}}}}}}}}}}}}}}}}}}}}}}}}}}}",
"}}}}}}}}}}}}}}}}}}}}}}}}}}}}}}}}}}}}}}}:,-+-,ajkxEKkfs,-++:-}}}}}}}}}}}}}}}}}}}}}}}}}}}}}}}",
"}}}}}}}}}}}}}}}}}}}}}}}}}}}}}}}}}}}}}}@>>@+->ajkzKxkfai-++;;:}}}}}}}}}}}}}}}}}}}}}}}}}}}}}}",
"}}}}}}}}}}}}}}}}}}}}}}}}}}}}}}}}}}}}}@p,>-+;>ajklxzkfa,;+X-;;+}}}}}}}}}}}}}}}}}}}}}}}}}}}}}",
"}}}}}}}}}}}}}}}}}}}}}}}}}}}}}}}}}}}}}:>>,@+;>sfkzJzkda,:+X-:-;:}}}}}}}}}}}}}}}}}}}}}}}}}}}}",
"}}}}}}}}}}}}}}}}}}}}}}}}}}}}}}}}}}}},:-;,+@-,sfkzzljfa,:@+;s:;:.}}}}}}}}}}}}}}}}}}}}}}}}}}}",
"}}}}}}}}}}}}}}}}}}}}}}}}}}}}}}}}}}}>,>:,iX@-,sjl_]Txja,:@+>z>;;;+}}}}}}}}}}}}}}}}}}}}}}}}}}",
"}}}}}}}}}}}}}}}}}}}}}}}}}}}}}}}}}};i,::i-X@;izxJLRYKlfp:@+:k>-;>:}}}}}}}}}}}}}}}}}}}}}}}}}}",
"}}}}}}}}}}}}}}}}}}}}}}}}}}}}}}}}}}:k,>,>;X@>zRRIPYIKzldi-+-P,::,:}}}}}}}}}}}}}}}}}}}}}}}}}}",
"}}}}}}}}}}}}}}}}}}}}}}}}}}}}}}}}}@,Ti,:-;+pjzKKLILxzJTTlp@+p:>:,:+}}}}}}}}}}}}}}}}}}}}}}}}}",
"}}}}}}}}}}}}}}}}}}}}}}}}}}}}}}}}}-iK,,i,>ddllxJIRLzllzkfsp>-;,>>>:}}}}}}}}}}}}}}}}}}}}}}}}}",
"}}}}}}}}}}}}}}}}}}}}}}}}}}}}}e99=-pTp;->sajJzJKR_Pxkjjdsaii>>;:>::}}}}}}}}}}}}}}}}}}}}}}}}}",
"}}}}}}}}}}}}}}}}}}}}}}}}}}9tnVBnt>,ap,,ipajllII'`Pxkjfdspi,i:-;p>:}}}}}}}}}}}}}}}}}}}}}}}}}",
"}}}}}}}}}}}}}}}}}}}}}}}}}9cADFDCv>s:::,iiJjjzKI_)Izkjjfsp,,,>;;,p>;}}}}}}}}}}}}}}}}}}}}}}}}",
"}}}}}}}}}}}}}}}}}}}}}}}}evAW/QFAupj;>,iiiRjjlzPRTKljfffdi,,,,:;:ap&$}}}}}}}}}}}}}}}}}}}}}}}",
"}}}}}}}}}}}}}}}}}}}}}}}rbS!//QFNqip:;:i,iTffklxKJljfddddi,,pp>-@>p=153}}}}}}}}}}}}}}}}}}}}}",
"}}}}}}}}}}}}}}}}}}}}}}rbS~///HCnwd,::,,,pPffjjjkjffdssssp,iafj:-:,>9cbN}}}}}}}}}}}}}}}}}}}}",
"}}}}}}}}}}}}}}}}}}}}}evBG//!HDVc8f,;>:>>ilddddssssssaaaapiiakJ,;:i,>nDFF}}}}}}}}}}}}}}}}}}}",
"}}}}}}}}}}}}}}}}}}}}9cnS!~QHDVneqd>,-,>>idsddsasdffdfsaapaipjId;-,i,n/(FA}}}}}}}}}}}}}}}}}}",
"}}}}}}}}}}}}}}}}}}}2rvBG!HGSVNcyss:;:>:>jfkJxkdslKzzLlspakp,dYa;-ia>vD!Sc}}}}}}}}}}}}}}}}}}",
"}}}}}}}}}}}}}}}}}}}3tbVGGGSBnvryfp;>:::@xlKJLLxdiippi;;>>,::px>;;,a,7HBN3}}}}}}}}}}}}}}}}}}",
"}}}}}}}}}}}}}}}}}}}1tnAFFABbbvewd,-:::;@i+++++++++++++++++++:a>@>,si>cr9%}}}}}}}}}}}}}}}}}}",
"}}}}}}}}}}}}}}}}}}}OebDDSBbvbvepdi>-::;++@@+@++++XXXXXXXXXXX++:>-;ai>4OOO%}}}}}}}}}}}}}}}}}",
"}}}}}}}}}}}}}}}}}}}=rvBVBnvvNNedf,;-i++@@@@+@++++XXXXXXXXXXXXX+>--ip,7932399}}}}}}}}}}}}}}}",
"}}}}}}}}}}}}}}}}}}}<rcbnbvcvBVidp-;XX@@@@@@+@++++XXXXXXXXXXXXX+++;>ai8rcMmte3}}}}}}}}}}}}}}",
"}}}}}}}}}}}}}}}}}}}59evvvccbB8aj,@X@@@@@@@@+@++++XXXXXXXXXXXXX++@+:dk,yZ^WSBt}}}}}}}}}}}}}}",
"}}}}}}}}}}}}}}}}}}9VVb35ttnvy7dT:+-+@@@@@@@+@++++XXXXXXXXXXXXX++@-@dI,qbWGDAvt}}}}}}}}}}}}}",
"}}}}}}}}}}}}}}}}}}0VSAN93rt5$isf@+-+@@@@@@@+@++++XXXXXXXXXXXXX++@-@iJi7t^SABbt}}}}}}}}}}}}}",
"}}}}}}}}}}}}}}}}}}6NDGSVvt9$Oss,+-+@@@-@@@@@@+++XX+X+XXXXXXXX++++@-@Pp,yBBBnce}}}}}}}}}}}}}",
"}}}}}}}}}}}}}}}}}}4uVDDSnte3iTj>+-+@@@-@@@@@@+++XX+X+XXXXXXXX++++@-@di,7tcSve}}}}}}}}}}}}}}",
"}}}}}}}}}}}}}}}}}}%9cnBVbr958ja-@@@@-;@;@-@@@++++X+XXXXXXXXXX++++@@-@i,o3e932}}}}}}}}}}}}}}",
"}}}}}}}}}}}}}}}}}}ccrrtct9==,>;-@@@@-;@;@-@@@++++X+XXXXXXXXXX++++@@-@:>:o$$%}}}}}}}}}}}}}}}",
"}}}}}}}}}}}}}}}}}b9ee9rrr2==:;-++@@-;;-;;;@@@@+@+X+X+XXXXXXXX++@@@@@@@-:12123}}}}}}}}}}}}}}",
"}}}}}}}}}}}}}}}}}CAASABnce=q:;++@@--:;:;;;;-@@@@+++X+XXXXXXXX++@@@@@@@+;5erer}}}}}}}}}}}}}}",
"}}}}}}}}}}}}}}}}}ADDDDSVNnc6-;++@@--:;:;;;;-@@@@+++X+XXXXXXXX++@@@@@@@+-ebbrvn}}}}}}}}}}}}}",
"}}}}}}}}}}}}}}}}vvAASGGQ//Du:-++@@-;::>:::-;@@@@+++X+XXXXXXXX++@@-@@@++X-NVUSt}}}}}}}}}}}}}",
"}}}}}}}}}}}}}}}SAverNVDFGHGM;@++@@-;::>:::-;@@@@+++X+XXXXXXXX++@@-@@@++X@N~/Fb9}}}}}}}}}}}}",
"}}}}}}}}}}}}}}DFAnr59vnNBVSu;:++@@-;::>:::-;@@@@+++X+XXXXXXXX++@@-@@@++X;b~/GSr}}}}}}}}}}}}",
"}}}}}}}}}}}}}}bNnc2<<etttcv0>a+@@-::>::::::;-@@@+++X+XXXXXXXX++@@;-@@@X++vW~DBr}}}}}}}}}}}}",
"}}}}}}}}}}}}}}ertre==<29393qi.++@-;>,>>>,::--@@@++@X+XXXXXXXX++@@;;--@+++nSHAv3}}}}}}}}}}}}",
"}}}}}}}}}}}}}}19Grrrrcty3<%7i.++@-;>,>>>,::--@@@++@X+XXXXXXXX++@@;;--@++5BCSbt}}}}}}}}}}}}}",
"}}}}}}}}}}}}}}#29vNVSDSnve0>,.++@-;>,>>>,::--@@@++@X+XXXXXXXX++@@;;--@++0NBncr}}}}}}}}}}}}}",
"}}}}}}}}}}}}}}}O%9vVD!/FDng> .+@-;:>,,>>>>::-@@@X+@X+XXXXXXXX+@@@-;---X+:vcre9}}}}}}}}}}}}}",
"}}}}}}}}}}}}}}&&%%9cBS!/(FZ. .+@-;:>,i,,>:>;-@@@++@X+XXXXXXXX++@-::;;-+X.tr9<}}}}}}}}}}}}}}",
"}}}}}}}}}}}}}9952&$<ynVF((M. .+@-;:>,i,,>:>;-@@@++@X+XXXXXXXX++@-::;;-+X.Bt2}}}}}}}}}}}}}}}",
"}}}}}}}}}}}}rNBBbe*O%=yvvBh. .+@;::>,,>>,>>;--@@++@X+XXXXXXXX+@@@;::;-++.41}}}}}}}}}}}}}}}}",
"}}}}}}}}}}}2cNVVBNbc2%%1557. .+@;::>,,>>,>>;--@@++@X+XXXXXXXX+@@@;::;-++.}}}}}}}}}}}}}}}}}}",
"}}}}}}}}}}2evNVVVVVCBe=%**=. X@@-::,,i,,>>:;-@@@++@X++XXXXXXX+@@-:::;-++.}}}}}}}}}}}}}}}}}}",
"}}}}}}}}}29tbBBVVVASDFABNc+. X@@-::,i,,>>>:;-@@@++@+++XXXXXXX+@@;::::;@+.+}}}}}}}}}}}}}}}}}",
"}}}}}}}}}9rvnBVVCAASDFFGFS+. X@@-::,i,,>>>:;-@@@++@+++XXXXXXX+@@;::::;@+.+}}}}}}}}}}}}}}}}}",
"}}}}}}}}9rvnBVVASDDFFGGGGF+. X@@-::,i,,>>>:;-@@@++@+++XXXXXXX+@@;::::;@+.+}}}}}}}}}}}}}}}}}",
"}}}}}}}}rvnBVCASDFGGGGGGGF.. X@@;::,,,>>>>:-;-@@X+@X++++XXXXX++@@:::;:@+..}}}}}}}}}}}}}}}}}",
"}}}}}}}rvNBVCSDFGGGGGGGGGF. .+@@;:>,,>,>>>;--@++++@X+XX+XX+XX++@@;:::;@+ .}}}}}}}}}}}}}}}}}",
"}}}}}}ecnBVCSDFGGGGGGGGGGF.  +@@;::,,>>>::;;@@@++@@+++XX+XXXX+++@:::::-+ .}}}}}}}}}}}}}}}}}",
"}}}}}9tbBVCADFGGGGGGGGGGGF.  +@@;::,,>>>::;;@@@++@@+++XX+XXXX+++@:::::-+ .}}}}}}}}}}}}}}}}}",
"}}}}}evNVVASFGGGGGGGGGGGFD.  +@@;::,,>>>::;;@@@++@@+++XX+XXXX+++@:::::-+ .}}}}}}}}}}}}}}}}}",
"}}}}3rnBVCSDGGGGGGGGGGGFSV.  +@@-;:>>>>:;;--@++++@@+XXXX+XXX+++@@;:;:;-+ .}}}}}}}}}}}}}}}}}"
};
