/* XPM */
static char *a1dbf9c407cf4ca5de17f8caec9c0923RCcui1AOe4s0EgkC[] = {
/* columns rows colors chars-per-pixel */
"64 64 256 2 ",
"   c #2A130C",
".  c #3B160C",
"X  c #3C190C",
"o  c #35170B",
"O  c #2C1512",
"+  c #2E1A15",
"@  c #291717",
"#  c #341512",
"$  c #341B14",
"%  c #3B1C14",
"&  c #341C1A",
"*  c #3B1E1A",
"=  c #3C1513",
"-  c #250E0D",
";  c #3C2115",
":  c #3C231B",
">  c #37241B",
",  c #3B1C21",
"<  c #3B2421",
"1  c #3E2B22",
"2  c #362221",
"3  c #3E3027",
"4  c #1F1611",
"5  c #46180B",
"6  c #551B0C",
"7  c #431C15",
"8  c #4B1D14",
"9  c #471D19",
"0  c #541D13",
"q  c #631E0F",
"w  c #4B230E",
"e  c #56220E",
"r  c #442215",
"t  c #4C2314",
"y  c #43231B",
"u  c #4B231B",
"i  c #452A1E",
"p  c #4C2B1C",
"a  c #4A2A16",
"s  c #542314",
"d  c #5B2314",
"f  c #54241B",
"g  c #5C251A",
"h  c #542B1B",
"j  c #5B2B1C",
"k  c #582A15",
"l  c #59321E",
"z  c #47321F",
"x  c #67250C",
"c  c #63251B",
"v  c #632B1D",
"b  c #6C2C1C",
"n  c #672715",
"m  c #732D1C",
"M  c #762A15",
"N  c #63331D",
"B  c #6B331C",
"V  c #69351A",
"C  c #74331D",
"Z  c #7C331D",
"A  c #793618",
"S  c #772C0D",
"D  c #442521",
"F  c #4B2522",
"G  c #452A23",
"H  c #4B2C23",
"J  c #4C2D29",
"K  c #452B2B",
"L  c #542622",
"P  c #532C23",
"I  c #5B2D23",
"U  c #532E29",
"Y  c #5B2825",
"T  c #4D3225",
"R  c #4D332B",
"E  c #463329",
"W  c #543324",
"Q  c #5B3224",
"!  c #5C3A25",
"~  c #54342B",
"^  c #5B342B",
"/  c #54392C",
"(  c #5B3A2C",
")  c #563C26",
"_  c #543431",
"`  c #553B32",
"'  c #5C3C32",
"]  c #5B3934",
"[  c #4C3634",
"{  c #632D23",
"}  c #6B2E22",
"|  c #652B27",
" . c #732D22",
".. c #7C2E24",
"X. c #643324",
"o. c #6B3324",
"O. c #653B25",
"+. c #6C3A25",
"@. c #63342A",
"#. c #6C342A",
"$. c #633B2C",
"%. c #6C3B2B",
"&. c #733424",
"*. c #7B3424",
"=. c #743B25",
"-. c #7C3B23",
";. c #73352A",
":. c #733C2C",
">. c #7B3B2B",
",. c #7C352C",
"<. c #633C32",
"1. c #6C3B32",
"2. c #663836",
"3. c #753D32",
"4. c #793E30",
"5. c #5D4233",
"6. c #574335",
"7. c #5B412F",
"8. c #6D422D",
"9. c #694129",
"0. c #74432C",
"q. c #7B442C",
"w. c #7A472A",
"e. c #644233",
"r. c #6B4333",
"t. c #6D4936",
"y. c #644439",
"u. c #6C443C",
"i. c #6B4B3D",
"p. c #674A3A",
"a. c #734434",
"s. c #7B4433",
"d. c #744B35",
"f. c #7C4A33",
"g. c #754539",
"h. c #744C3B",
"j. c #7B4C3B",
"k. c #7C433A",
"l. c #7B523A",
"z. c #785139",
"x. c #725235",
"c. c #774C42",
"v. c #7C5343",
"b. c #7A5645",
"n. c #6D4D44",
"m. c #84341D",
"M. c #8C341C",
"N. c #89381B",
"B. c #933A1E",
"V. c #96381C",
"C. c #862C1A",
"Z. c #A43D1D",
"A. c #833524",
"S. c #8C3523",
"D. c #833A23",
"F. c #8C3B24",
"G. c #843B2A",
"H. c #8B3C2B",
"J. c #88352B",
"K. c #933B23",
"L. c #9A3C23",
"P. c #943D2B",
"I. c #9A3A29",
"U. c #883B33",
"Y. c #92372C",
"T. c #A53D26",
"R. c #AB3D2D",
"E. c #98441E",
"W. c #8E441F",
"Q. c #B84E1F",
"!. c #84442B",
"~. c #8D422C",
"^. c #874729",
"/. c #944225",
"(. c #9B4325",
"). c #94422B",
"_. c #9B432B",
"`. c #9D492D",
"'. c #994C28",
"]. c #834B34",
"[. c #8A4D34",
"{. c #834C3A",
"}. c #844535",
"|. c #9B4431",
" X c #984A32",
".X c #83533C",
"XX c #895539",
"oX c #935438",
"OX c #8B582D",
"+X c #A44324",
"@X c #AB4525",
"#X c #AC4A24",
"$X c #A3442B",
"%X c #AB452C",
"&X c #A34A2C",
"*X c #AB4B2C",
"=X c #A34A24",
"-X c #B34C2C",
";X c #BA4D2D",
":X c #B44826",
">X c #AB522D",
",X c #B4532D",
"<X c #BB542C",
"1X c #BD572A",
"2X c #A44C33",
"3X c #AB4C32",
"4X c #A64735",
"5X c #B24D33",
"6X c #B94C32",
"7X c #AD5133",
"8X c #A85536",
"9X c #B45333",
"0X c #BB5333",
"qX c #BC5A35",
"wX c #B9583A",
"eX c #BB6339",
"rX c #B16334",
"tX c #9B613C",
"yX c #C2532B",
"uX c #C45A2D",
"iX c #C9592B",
"pX c #D15A29",
"aX c #C35434",
"sX c #C35C33",
"dX c #CB5C33",
"fX c #C35B3B",
"gX c #CB5837",
"hX c #C8522F",
"jX c #CC643A",
"kX c #C96537",
"lX c #D3643A",
"zX c #D3693B",
"xX c #D76637",
"cX c #D9763A",
"vX c #CC642B",
"bX c #E46F3A",
"nX c #875945",
"mX c #965C44",
"MX c #824F42",
"NX c #AF5942",
"BX c #976449",
"VX c #92684F",
"CX c #B86444",
"ZX c #A77353",
"AX c #A77F65",
"SX c #C95D42",
"DX c #C86744",
"FX c #D56743",
"GX c #D87546",
"HX c #D7754E",
"JX c #E77546",
"KX c #E98338",
"LX c #AD8262",
"PX c #DA8549",
"IX c #E78546",
"UX c #EE8A51",
/* pixels */
"iXiXdXm.N :.>.a.0.!.0.s.w.=.8.=.h ^.oXXX{.nX].].w.w.w.].[.[.].f.l.8.W.zXGXPXIXUXPXKX8XnXVXoX[.[..X:.0.j.a.f.f.a.8.a.8.O.C SXhXuX",
"9X*X(.n f O.o.o.@.o.Q L j j P k * @.N Q @.N %.a.3.:.:.3.%.%.%.%.!.&./.HXHXGXzXjXwXkXm.O.w.w.x.l.d.O.O.d.8.8.O.O.! h W a 6 P.5X>X",
"H.m.m.b f >.A.*.G.D.&.e n B >.[./.W./.A -.-.e % k s k Q h l W W f h P { A S Z oX8XtXOXXXoXw.F , ; X % : $ o o % v +.%.%.>.H.m.F.",
"dXuXiXfX=XsXiXuXyX1X;X/.fXeXqX1X0X9XaXaX,X<XV.o.q.w.w.[.].XXXXXXXX].d.V eXcXPXUXJXJXIXUXbXkXZ N {.f.s.s.:.%.X.0.xXlXdXkXdXdXuX1X",
"0X<XyX9XB.0XaXqX0X,X*Xm.-X(.*X#X+X7X-X0X#X,X8Xo.a.0.0.f.w.[.].w.w.w.j.=.kXbXIXJXcXGXcXcXlXzXP.q.{.s.q.s.{.{.:.0.xXuX1X<X1X<XqXqX",
"$X(.(.K.M B.L.F.(.E.M.S +XB./.V.m.N.(.L.L.K.~.8 @.@.{ v o.%.1.a.%.:.$.+.8XkXjXkXQ.9XwX#X&X).d z 0.0.8.0.O.O.k w +X@X9X+X5X%XR.%X",
"{ n v v f o.&.I 5 X.Q f v j <.%.D 6 &.*.*.M M *.B B =.=.+.t X ; ; D # X p d 6 k s F |  XoXoX^.XXp H ( / i T J H l s X.t X d b g ",
"{.0.f.f.d.!.^.0.X.mXnXmXXX[.nXXX*.*X0X9X6X6X-X-X:X:X;X-X3XZ &.{.^.s.!.].f.!.oXl.[.O.-.UXIXPXIXJX].!.XX{.o.q.{.s.a.}.4.( a j.q.d.",
"f.q.a.{.=.0.q.V $.BXoXoX[.{.[.v.$.*XQ.#X%X%X%X$X+X$X$X@X&Xb s.mXoXoX XXXBXmXmXmXoX].w.HXcXbXGXGX[.V {.{.h %.:.%.%.O.#.<.f {.q.:.",
"I Q I I ^ Q Q P h =.d.v.h.%.0.p.j ).@X_.)._./.B.K.I.I.L.S.n o.w.f.{.s.0.=.=.!.f.w.o.s CXqX<XeXFX@.p Q P ; W Q W W ! ( / r X.%.r.",
"=.].!.!.[.V B 0.C w.B % H k I u $ 0 { Q Y 7 8 x v v b b n j h N X.l t j N V j $ O.y.R %.+.&.O.6 x B }.G.C C C B f s s f f B o.u ",
"jXzXxXbXxXyXlXJXbXGXkXb ] j U Q @.I I l I 9 o.3X`.$X&X*X%X3X$X*X:X&XR.6XsXdX6XB tXBXBXoXBXBXnXX.-XqXaXyXyXdXhXyX-XyX;X;XaXyX0XM.",
">XqX1XlXzXuXdXvXdXuXlXC J U ~ v h L H p P 9 } L.S.L.(._.P.S.I.I.T._.I.T.+X-X4XP mXXXoX[.oX[.mXa.$X5X-X;X:X;X;X-X%X<X#X*X-X@X$XZ ",
"K.9X@X<XfXDXjXlXwX-X,Xx i T l a h p y r 9 = k m.C.M.M.H.A.m.K.K.K.F.S.S.B._.H.5 F 1.:.f.s.0.!.j M S.N.M.C.M.B.L.I.L.M.S.T.T.L.A.",
"c *.m &.v 0 n M f x g 5 7 . . # - O - @ @     * $ X . #   s e d e v B &.B m B w f j f O #   . O o = #   9 F i 8 7 7 r . d M S n ",
"qX-X:X9XF.S &X9X<XyX9X9X;XqX9Xc H $.$.' ^ ( / ~ [ / ^ J 9 }.I.4XP.4XwXwX0X6XSXDXlXdXwXe 2.r.:.a.a.s.%.u 3.1.%.;.1.%.%.s H.fXgXwX",
"=X&X&X%X(.S FXlXzXFXxXpXxXbXFX:.2.y.y.1.<.' ] ] ] ( $.] u ~.T./.I.|._.I.$X+X5X5X*X+X/.o.MXf.].{.}.{.a.h 2.2.%.X.B #.] a /.hXyX,X",
":X-X@XR.B.S fXlXiXiXlXlXzXxXiXx j W ( @.( ( ^ W R / ~ H 7 &.S.A.F.m.F.M.K./.M.F.K.K.A.c a.j.a.1.a.a.r.t h I Q h i U F X A 0X0X@X",
"..&. .;.{ f j o.=. .B { f v m r i i D : & * 9 * > y $ > * 5 u U j s { { g f 0 8 # 8 5 o i l l j = r ! t t I I h a g c d d 6 g ;.",
"&.O.o.%.%.3.X.o.@.;.o.@.P Q #.$.o.@.I P 7 { ,.&.*.A.m =.>.d a Q / ~ F U _ _ J O c  X2X8XCXjXjXFXA.F.7X%XT.%X3XT.+X%X#X%XI.b l ;.",
":.o.&.+.o.,.X.;.1.;.} } j ^ | I I Y Y U = } H.G.A.Y.G.,.U.Y J U p W L ^ P J R $ /.GXzXsXqXkXkXDXG.A.K.B.V.L.L.V.I.4XL.L.R.&.X.O.",
"^ | } @.Q I t t h v Q @.s H ^ h I p u P . v *.Z -.b o.n c 5 X 7 y 7 r 7 i y :   m.9X9X9X9XqX,X8Xn M B.L.B.M.K.L.S.M.N.B.I.n f #.",
"& Y f h j Q h h t f & $ o $ K P L o . 9 . 7 g g f   : i G 2 2 R G D R J G   > E E ^ I <.$.+.+.j r Q 3.s.r.@.O.:.=.b n v  .f i 9 ",
"A SXkXkXxXGXxXFXzXFXA.m `.|.4X:X4XA D.).~.-.H.H.,.9 u.g.i.n.2.i.c.i.i.n.i.7 y.VXb..Xf.nXv.nXVXe.b.VXnXnXnXv.nXnXnXs.3.a.=.O.O.Q ",
"G.gXDXkXpXgXjXFXxXbX`.N.;X$X`.4X)._._._.).F.F.F.S.k ` u.<.) ' 2.y.^ e.<.y.~ ' b.h.j.a.d.d.f.c.' i.nX.XMXj.{.l.v.MXW X.%.+.{ ! { ",
"k *X8X,XuXjXkXvXlXgXA.b |.).B.K.D.P.H.H.G.D.*.G.%.; 1 G H z i G E > G E E + > ` ( ' ' ) 5.$.' G 1 <.e.<.' r.( ] U y P ^ I L H f ",
": g g X.@.f m./.&.*.{ k &.G.D.f h X.j h L p u u D = L Y Y Y L | ^ { { #.@.8 g { @.| @.u @.#.#.f j =.o.g % P h P p y I I H y ; 9 ",
"#. .o.X.G I fXFX1XkXGXzXuXgXxX-.^ <.$.Q ^ ~ F P H b |._.P.P.K._.(.&X+X&X$X$X5X-X9X3X7XN.&XqXqX>X%XwXwX4XX.s.=.%.a.O.%.{ Q a h #.",
"@.@.$.X.W =.xXpXxXgXgXkXqXfXlX^.( ( ! W ( W a h 3 v ~.F.H.U.A./.H.P.P.I.P.|.4X2X*X%X2Xm._.5X5X*XL.#X*X_.h ;.;.@.X.{ @.| @.u I #.",
"u h L s t 6 (.8X&X9X9XsXDXwX;XN.^ P ^ U U ~ F U H v S.m.G.J.A.D.H.A.F.F.A.A.F.K.F.S.U.b A.K.K.M.J.K.M. .% H G > F J 1 D D & i u ",
"X.B L f O.@.c . : N } Z C g ,.{ { I I u : < 2 2 & 7 u u 9 X 7 7 7 7 t u r X h h P H U : i P P i % &.Z G.;.>.&.m #.@.o h 0 s v B ",
"jXpXwX<XvXzXgX(.qXiXaXSXE.S 2X&X(.K.).C d j P L J H i i : $ G i D H J J J : ] ] 5.' y.6.5.y.y.6.L 4X*X*X2X3X&X;X-X+Xx wXwXwXgXkX",
"sX;XuXdX<X<XsXsXgX<X<XaX3Xm. X$X(.(./.G.f P J J H G D J G : H H J J G G H y / ( ! ] ' ` ' y.' <.h ).%X4X|.L.(.R.$XD.n NX0X<X<XfX",
"$XL.%X3X5XT.%X6X*XV.E.L.m.x ~.K.H.H.*.v 5 : : : i y ; ; $ o % % * * * < < * G J G F H p W T H G * { &.b m n B ..Z b 6 G.P.L._._.",
"% o % % $ # H t u f f f u * D = 0 g c c f L L 8 O O $ & @ + & & & & + + O O O @ @ O $ O @ - $ u 7 9 t w t o   % ; & + + ; 8 7 o ",
"[.}.>.:.j 8.VXXXnXVXBXnXnXnXnXO.~.`.&X$X$X_.$XL.i i ~ ~ ~ _ ~ / / ( ~ H y / _ ~ / W ( / [ y >.7XwX7X7X0XwX,.<.i.%.3.k.I %.}.U.k.",
":.;.B :.j $.nX.XnXXXnXnXl..XnXl L.+X+XL.(.)./._.i i T T T ~ T T J R J D : _ _ K R p p y G r >.2X@X*X&X-X%X .I @.O.X.@.r Q %.:.%.",
"8 X.o.o.o.o.4.&.o.X.h i ' ~ J i X.o.o.o.Q P 8 s 7 7 r r r u u u u u u u 7 u u . @ < H H E 1 J u 7 ~ ) ) $.( [ ` / ] H G ~ J ~ ; ",
"E.DXjXkXzXkXkXuX<X7Xm.V mXXX].nXh.z.h.r.t.r.j ;.*. .m &. .m *.*.F.D.F.)./.~.~.A ] u.g.r.e.e.p.' [ c.i.p.i.z.h.d.d.h.t.v.b.c.z.%.",
"(.fXaXdXyXaX0XqX<X%X).:.nX{.MXt.j.g.a.r.e.t.s } } b b &.&. .,.*.G.G.S.F.H.H. Xm l ' ' y.y.$.r.( R a.%.u.u.h.t.i.g.e.t.g.1.i.$.:.",
"b &X`.5X#X:X&X=X|.m d j r.e.Q $.r.<.2.<./ P 7 L c c { v v c &.*.*.*...G.o.C *.6 > J J E K H R 1 % H R _ ~ ` ~ ` ] R ' G ~ ~ i J ",
"&.F.G.*.Z ..Y F N h H y $ : : * $ $ # O O $   % #   - O $ ; y r > & * # u }  .v @.} g j #.d h X.o.:.;.#.o.o.o.:.o.5 =.;.o.&.;.>.",
"wXyXqX>X>X3Xo.X.%.e.y.' p ( $.P P T P r y ^ W I ~ H ; i G G y i i D G X >.2X$X2X9X5X(.K.3XK./.8X9X3X&X*X*X9X*X*X&X(.DXwX9XaXqX9X",
"7X;X5X>X#X>XB ! $.$.^ ^ P $.Q Q ^ ~ @.u u @.W I I L 7 y y y y F * 9 G o ,.4XL.(.L._.).P.4X*.B ).P.P._.`._._.|.2X).D.2X2X3X%X&X7X",
"~.).D.&.m.*.f y J H : H y i : 1 G > G ; : J 1 G F * $ & 2 & 2 2 : y 2 $ } A.A.D.A.Z *.G.G.n s &.*.-.>.-.*.Z Z *.b n H.H.~.F.D.F.",
"R ~ U H G.H.U.;.B c g { d d k t 8 X f s f g 7 7 f t u r *   # # O O @ 4 $ X y > y 7 $ : % & + # $ $ % * ~ ] ' ( ] ~ U X P $.^ Q ",
"y.r.u.O.,X1XhX:X5X$X(.2X_.(._.F.A.n H.F.H.Y.b b Z C *.&.c 0 v j v g g h a t r $ R ^ ' ` ' <.5.i T y.y.( i.i.i.i.c.i.$.p i.u.' u.",
"$.$.2.W `.*X3X>X*X3X(.(._.B.K.P.G.n A.Z S.S.b } *.m m &.g g | { v v } { Q { Y F 6.<.y.6.5.( p.W 5.n.i.) y.i.t.e.8.t.h.W / <.5.$.",
"T G H 5 C _.$X%X_._.M.m.Z C C A &.q n *. .} c c b c v v 0 5 g f h h f I f Y P 7 ) 5.` ` ` / / G ` 5.7.~ _ e.r.$.e.$.<.J ~ J H G ",
"> 1 K G ~ ! Q 7 c n c g g 0 | #.o.j g s 5 8 8 7 7 u H i G D J G F J D # 7 r % > * D * * P P ^ L P j Q I Y # + , + $ $ - $ J J i ",
"r.t.y.p.e.r.a.P `._.2X`.2XM.S.4X(._.(./.m.m.D.D.t P ( ~ ( ' ( ( O.e.P d !.F.F.H.H.D.*.D.CXDXkXkXeXfXkXeXNXv E ] J J J G H i.t.e.",
"( W ~ ( P ( ^ L &X&X_._.`.M.M |.I.L.K.P.F.Z *.Z D D R R ~ / ~ ~ ) ' H X. X+X3XI.|.).F./.DXGXzXzXzXFXDXkXCXo.T <.j Q Q Q h e.( $.",
"r P W l p W p p m &.&.b } } d I =.;.#.X.{ I I P H # 7 P P P P Q L ~ D ^ ;.&.} #.o.#.X.X.].].!.[.'.^.!.^.:.p / ! H H R G : G D D ",
"m.NX7X5X5X5XwX0X~. XZXmXmXmXmX+.f.d.j.g.t.e.e.e.y.p W t.t.d.d.d.j.nXv.l.nXl.! i.d.c.y.i.c.g.h.c.h.<.<.n.' <.b.z.b.b.v.a.a.a.s.a.",
"d !.D.F.~.F._.L.m &.[.!.[.[.].k @.Q ^ P W P i u : $ % R T T W W W ! O.! ~ H y ( ( ( T / ( W ' ~ R <.@.y.$.:.{.s.@.1.#.{ X.P H J ",
"c.j.0.:.a.r.a.d.g.r.j l %.:.%.$.$.( ^ . y <.<.P p ^ W <.^ @.$.r.u.a.0.a.( y n.MX.XnXb.nX.X8.nXh.9.DXeX8XDXlXsXqX#XqX,XwX8X-.+.g.",
"{.{.f.s.f.a.j.j.].}.{ c.j.f.MXk.a.a.a.t a.1.g.Q @.g.a.a.a.a.j.j.{.f.{..X.X0.nXnXnXnX.XnXVXBXVXx.[.DXqX<XsX9X3X3X&X-X>X&X3X~.s.nX",
"$.$.X.%.%.X.%.:.:.<.p h $.v j ! W W J % R J H o H J H p p p W ( <.W <.u.r.j d.a.l..X{.f.XXXX.Xl.^.SX,X,XaX7X&X3X`.%X%X+X%XS.B +.",
"T ~ i H T r p ! i y g n 8 h B o.v N o.g j j j j k s j N B B B V 0.d 5 X.s X.s.s.H T W l ! W ~ ~ N !.=.!.C j q.q.@.#.;.;.;.X.i G ",
"s.{.q.s.{.+.0.f.f.&.;XdXM.`.jX0XgXaX6XaX6X6X6X6X5X%X6X0X6XaXaXaXsX<X,XkXqX1XjXsXf.LXZXBXZXx.f.BXb.j.t.b.<.7.nXt.0.l.d.d.0.j.%.%.",
"a.s.3.%.g.I %.s.3.o.+XyXY.I.hX-X-X@X@X*X*X+X+X(.).M.(.(.V.#X,X,X3X9XqXqXqX<XsX1Xf.LXAXZXLXnXl.nXnXXXf.nXa.$.}.:.:.a.a.a.r.g.1.@.",
"9.O.%.$.r.j X.:.%.B (.#X).M @X-X:X:X:X:X@XZ.Z.+XM.C.V.*X@X@X;X0XyXdXyXuX1XsX,X#XV ZXZXZXZXx.l .Xf.a.d.MXQ W s.r.0.O.a.g.h.r.$.T ",
"X X r % ; % X 7 ; 5 n n s . 0 q g v c d d s 8 5 7 5 8 f f 0 f g v d x 6 n 6 s 8 5 l h ( 5.) H / ( r a ( i H @.) ~ 1 G F > y 7 o ",
"Y.H...6 5 j j X.{ { } o.X.1.@.j 5 @.%.%.X.%.Q Q I I h Q Q Q @.j / r s !.`.eXeXeXCXNXA XXVXmXmX.Xj.8.O.{.v.l.s.l.{.z.8.%.e G.K.K."
};
