/* XPM */
static char *_540138d07d74dcaee684cba3bc5bd3aXRKIaBfyd3sFNRkr[] = {
/* columns rows colors chars-per-pixel */
"64 64 256 2 ",
"   c black",
".  c #010101",
"X  c #020202",
"o  c gray1",
"O  c #040404",
"+  c gray2",
"@  c #060606",
"#  c #070707",
"$  c gray3",
"%  c #090909",
"&  c gray4",
"*  c #0B0B0B",
"=  c #0C0C0C",
"-  c gray5",
";  c #0E0E0E",
":  c gray6",
">  c #101010",
",  c #111111",
"<  c gray7",
"1  c #131313",
"2  c gray8",
"3  c #151515",
"4  c #161616",
"5  c gray9",
"6  c #181818",
"7  c #191919",
"8  c gray10",
"9  c #1B1B1B",
"0  c gray11",
"q  c #1D1D1D",
"w  c #1E1E1E",
"e  c gray12",
"r  c #202020",
"t  c gray13",
"y  c #222222",
"u  c #232323",
"i  c gray14",
"p  c #252525",
"a  c gray15",
"s  c #272727",
"d  c #282828",
"f  c gray16",
"g  c #2A2A2A",
"h  c gray17",
"j  c #2C2C2C",
"k  c #2D2D2D",
"l  c gray18",
"z  c #2F2F2F",
"x  c gray19",
"c  c #313131",
"v  c #323232",
"b  c gray20",
"n  c #343434",
"m  c #353535",
"M  c gray21",
"N  c #373737",
"B  c gray22",
"V  c #393939",
"C  c #3A3A3A",
"Z  c gray23",
"A  c #3C3C3C",
"S  c gray24",
"D  c #3E3E3E",
"F  c #3F3F3F",
"G  c gray25",
"H  c #414141",
"J  c gray26",
"K  c #434343",
"L  c #444444",
"P  c gray27",
"I  c #464646",
"U  c gray28",
"Y  c #484848",
"T  c #494949",
"R  c gray29",
"E  c #4B4B4B",
"W  c #4C4C4C",
"Q  c gray30",
"!  c #4E4E4E",
"~  c gray31",
"^  c #505050",
"/  c #515151",
"(  c gray32",
")  c #535353",
"_  c gray33",
"`  c #555555",
"'  c #565656",
"]  c gray34",
"[  c #585858",
"{  c gray35",
"}  c #5A5A5A",
"|  c #5B5B5B",
" . c gray36",
".. c #5D5D5D",
"X. c gray37",
"o. c #5F5F5F",
"O. c #606060",
"+. c gray38",
"@. c #626262",
"#. c gray39",
"$. c #646464",
"%. c #656565",
"&. c gray40",
"*. c #676767",
"=. c #686868",
"-. c DimGray",
";. c #6A6A6A",
":. c gray42",
">. c #6C6C6C",
",. c #6D6D6D",
"<. c gray43",
"1. c #6F6F6F",
"2. c gray44",
"3. c #717171",
"4. c #727272",
"5. c gray45",
"6. c #747474",
"7. c gray46",
"8. c #767676",
"9. c #777777",
"0. c gray47",
"q. c #797979",
"w. c gray48",
"e. c #7B7B7B",
"r. c #7C7C7C",
"t. c gray49",
"y. c #7E7E7E",
"u. c gray50",
"i. c #808080",
"p. c #818181",
"a. c gray51",
"s. c #838383",
"d. c #848484",
"f. c gray52",
"g. c #868686",
"h. c gray53",
"j. c #888888",
"k. c #898989",
"l. c gray54",
"z. c #8B8B8B",
"x. c gray55",
"c. c #8D8D8D",
"v. c #8E8E8E",
"b. c gray56",
"n. c #909090",
"m. c gray57",
"M. c #929292",
"N. c #939393",
"B. c gray58",
"V. c #959595",
"C. c gray59",
"Z. c #979797",
"A. c #989898",
"S. c gray60",
"D. c #9A9A9A",
"F. c #9B9B9B",
"G. c gray61",
"H. c #9D9D9D",
"J. c gray62",
"K. c #9F9F9F",
"L. c #A0A0A0",
"P. c gray63",
"I. c #A2A2A2",
"U. c gray64",
"Y. c #A4A4A4",
"T. c #A5A5A5",
"R. c gray65",
"E. c #A7A7A7",
"W. c gray66",
"Q. c #A9A9A9",
"!. c #AAAAAA",
"~. c gray67",
"^. c #ACACAC",
"/. c gray68",
"(. c #AEAEAE",
"). c #AFAFAF",
"_. c gray69",
"`. c #B1B1B1",
"'. c #B2B2B2",
"]. c gray70",
"[. c #B4B4B4",
"{. c gray71",
"}. c #B6B6B6",
"|. c #B7B7B7",
" X c gray72",
".X c #B9B9B9",
"XX c gray73",
"oX c #BBBBBB",
"OX c #BCBCBC",
"+X c gray74",
"@X c gray",
"#X c gray75",
"$X c #C0C0C0",
"%X c #C1C1C1",
"&X c gray76",
"*X c #C3C3C3",
"=X c gray77",
"-X c #C5C5C5",
";X c #C6C6C6",
":X c gray78",
">X c #C8C8C8",
",X c gray79",
"<X c #CACACA",
"1X c #CBCBCB",
"2X c gray80",
"3X c #CDCDCD",
"4X c #CECECE",
"5X c gray81",
"6X c #D0D0D0",
"7X c gray82",
"8X c #D2D2D2",
"9X c LightGray",
"0X c gray83",
"qX c #D5D5D5",
"wX c gray84",
"eX c #D7D7D7",
"rX c #D8D8D8",
"tX c gray85",
"yX c #DADADA",
"uX c gray86",
"iX c gainsboro",
"pX c #DDDDDD",
"aX c gray87",
"sX c #DFDFDF",
"dX c gray88",
"fX c #E1E1E1",
"gX c #E2E2E2",
"hX c gray89",
"jX c #E4E4E4",
"kX c gray90",
"lX c #E6E6E6",
"zX c #E7E7E7",
"xX c gray91",
"cX c #E9E9E9",
"vX c #EAEAEA",
"bX c gray92",
"nX c #ECECEC",
"mX c gray93",
"MX c #EEEEEE",
"NX c #EFEFEF",
"BX c gray94",
"VX c #F1F1F1",
"CX c gray95",
"ZX c #F3F3F3",
"AX c #F4F4F4",
"SX c gray96",
"DX c #F6F6F6",
"FX c gray97",
"GX c #F8F8F8",
"HX c #F9F9F9",
"JX c gray98",
"KX c #FBFBFB",
"LX c gray99",
"PX c #FDFDFD",
"IX c #FEFEFE",
"UX c white",
/* pixels */
"*...U ' y.$X&XU.G.D.;.G ! m.J.D.P.F.F.F.A.A.B.A.8.A T I j..XY.n.e.%.7.a.z.v.l.4.( W R E r.G.D.D.N.n.F.n.[ b R ( w.z.r.3.3.>.6.4.",
"c A W R ] S.G.b.n.Z.$.F ! p.K.V.C.c.B.z.v.M.n.d.P D #.T.<X=XXX[.W.Q.`.).].~.P.F.N.p...E / c.H.l.m.F.w.R z [ i.=.Q T A m N V M B ",
"3.%.Q ~ T 6.S.x.c.m.[ F Y | z.c.N.n.m.V.M.v.l.W C C.[.2X#X(.`.'.^.R.R.L.K.G.D.S.J.Z.u.E W _ n.M.x.+.b B t.).'.S.X.P Q ~ R ) O.$.",
"J.i.K Q T t.D.b.k.7.n ~ 2.~ ! ;.=.8.t.9.:.{ F c @.G.'..XW.K.G.Z.C.S.A.Z.E.K.A.H.Z.c.m.w.{ U ..2.J x R N.,XXX(.m.[ T W R :.D./.!.",
"N.n.$.I R 8.L.m.a.U G M.L.c.@.N F D V n M C H ^ R 9._.E.S.D.D.G.S.H.J.Z.P.G.T.(.C.v.c.n.k.X.P C Z +.S.OXoX/.C.h.^ T _ U.#X].].D.",
"Z.m.S...F  .D.V.c.! [ J.F.K.8.! T R U ! w.A.n.O.Y #.U.J.H.F.D.F.D.F.I.G.A.C.K.Z.v.c.l.M.c.#.W Q :.Y.}._.R.F.n.h.~ G t.7X%X'.I.V.",
"x.x.C.z.K ( D.C.m...T @.>.e.) D q.b.n.U.K.b.(.b.] W i.J.V.v.S.S.Z.G.C.Z.D.Z.m.b.v.j.n.b.Z.@.Z >.E.'.[.L.A.L.Z.i.I Y B.:X|.!.D.F.",
"c.l.N.f.L Q M.C.z._ J U V m b T :.%X2X[.T.A.F.C.9.R ( h.V.m.n.n.b.c.g.N.c.v.n.Z.F.H.C.Z.8.c R P.|.].L.H.A.^.J.p.Q T S..X).A.A.S.",
"b.x.N.h.D / m.V.5.v W ~ X.,.*.Q E Z._.P.D.B.c.b.h. .P O.f.l.l.z.h.r.&.o.| &.w.3.o._ [ @.B C 4.`.].J.F.Z.D.'.B.a.Q P D.}.G.A.K.A.",
"m.m.D.r.U ' j.i.v L U a.@X}.P.8.W +.C.l.b.Z.m.x.B.8./ _ H / ] ! A M n b Z V Z b m D G B H Q *.U.H.A.S.B.K.P.l.g.P I b.I.C.S.M.M.",
"m.z.d.t.P T 5.G D W 5.4X4X*XT.f.R H _ { ) $.s.h.s.=.U ! T J V S Q  .@.| X.2.&.@.| ` Q ) ) ! ) :.h.M.b.B.V.m.Z.v.I T f.K.B.M.x.m.",
"! N Z H J ^ K F ^ E U.=X|.'.{.G.4.^ T n V m N V D B K (  .2.v.I.I.G.G.P.H.J.C.~.T.m.=.U ~ L ! R D } o.*.t.k.B.i.G ! >.d.a.f.i.1.",
"N Y } W E W W Q ) m.'.`.(.^.E./.Y.q.v.l.a.i.>.Q E / W s.}.%X[.*XoX'.}._.{./.(.[.~.H.M.O.J 7.^.v.<.P C V V N G S D ! T Q T K Z v ",
"} B.{.U.6.^ R ! ( x._.!.K.V.S.A.P.c.n.K.J.G.j.` E W ( /.2X+X).[.^.E.W.Y.T.D.D.P.Y.S.N.g./ s.=XY.C.p.} ! [ M.N.6.=.#.[ ( P J I ~ ",
"o.=X:X/.H.y.^ E T @.Z.A.J.H.S.S.J.x.A.V.V.c.N.o.U R @.!.{.`.(.A.Z.F.S.G.D.A.V.Q.!.Z.b.b.+.Q F.D.y.Q Z ~ E /.2X{./.R.I.H.n.x.q.' ",
"=.'.`.F.S.D.d.' R R q.H.Z.B.A.H.Q.M.v.c.n.b.A.O.J R -.W._.T.V.H.B.D.F.D.U.J.V.!.A.l.b.x.*.S u.z.^ h 3.5.I A..X)._.^.F.H.P.H.k.| ",
"o.V.U.S.B.N.b.d. .W ^ b.M.v.m.m.M.x.m.M.M.B.D.=.I E O.v.H.B.C.C.M.M.B.m.N.n.v.n.m.v.B.A.q.S >.9.k 4.R.q.L B.~.L.F.V.D.N.V.x.g.{ ",
"W ' a.F.v.j.i.5.~ I R @.,.=.:.%.$.2.9.a.e.0.2.^ V ^ ~ E $.<.@.X.{ _ } $.#.=.$.$.+.=.6.i.;.H ` ;.V 5.K.q.I g.P.b.V.N.M.M.m.C.S.^ ",
"Q E E @.e.=.E M F ! W U b Z N b b F Z A c x N V W ! U _ U S m v m C S m B A S S G M b N m F ! ! P @.8.o.B $.d.v.n.m.n.h.t.w.-.b ",
"^ R Q Y Y Z G ) ~ Q W [ [ ' { X.+.{ ^  .-.#.O.~ E Q s.D.D.v.s.8.-./ { m._.(.T.L.N.f.;.~ W ! ~ Y U T T H W ! T W ! I M x Z B N Q ",
"N.9.R Q ^ E 4.G.q.X.P 3./.`.^.E.L.D.D.K.D.u.*.F ^ G.8X#X(.K.F.L.v./  .4X3XOX'. X~.G.F.v.u.O.W [ g.N.G.F.[ Y ! H S ~ 1.h.n.B.M.i.",
"D.A.e.` W =.,X~.N.9.H 1.>X6X*X}.[.(.R.U.M.p.| N B.0X#X'.L.D.S.V.y.Y | }.(.'.'.E.D.S.G.F.D.6.L y.<X&X`.c._ W x.q.L x.1X X]./.N.p.",
"n.C.Z.q.J V.,XP.C.3.D -.+X[.(.Q.K.G.S.D.v.f.! T ).&X).L.Z.S.A.N.s.D &.[._.H.F.D.H.D.S.N.k.7.I w.*X[.P.h.W $.^.N.) 8.%X'.[.!.b.B.",
"b.b.m.3.F H.].D.A.1.B 5.Q._.P.A.S.C.F.D.V.p.F | R.[.F.A.F.H.M.m.h.S <.E.S.A.F.B.M.M.v.c.v.d.( %.[.Q.Z.d.K e.(.A.X...(.}.`.G.B.B.",
"z.z.N.&.K D.T.C.A.9.S @.F.J.Z.L.G.M.S.Z.m.i.R / N.T.Z.H.S.C.M.N.f.F ( w.m.N.n.c.c.b.N.Z.k.>.C | U.S.B.q.V d._.V.#.T S.).L.D.C.m.",
"z.k.C.2.F k.M.c.d.,.I ^ %.:.k.D.S.F.F.m.h.f.) L y.U.H.M.M.v.v.q.m V Q ^ a.p.f.j.M.x.l.%.n j ..m.K.N.m.,.j r.~.m.3.J 5.K.A.A.b.v.",
"A.v.&.A C ` T A V l J T P c w.D.M.N.M.z.n.B._ I &.M.b.d.c.n.b.W J B.y.Q I N C A A D n h / B.|.~.M.z.Z.+.V <.D.f.t.R ] n.B.m.M.B.",
"e.J f R -.) [ 2.5.w.5.<.=.Y %.x.g.x.v.V.B.N.%.L T H ..d.h.x.g.G k.].B.@.Y R [ X.$.-.X.` d.Q.C.c.n.N.Z.R I @.7.X.' K Y } O.,.s.b.",
"z V y.[.*X#X{.[.[.`.I.D.A.] K { Y U ^ _ | ) B P ` >.U H L G H m 1.S.G.d.P [ E.&X~.K.z.` =.a.y.i.h.x.h.W Q ) ^ U D Q { K m N A Q ",
"U 0.%X2X$X`.R.P.P.H.n.Z.l.,.K H M Z V N N Z I T G.{.a.! U &.e...L ;.c.w.F @._.&XQ.Z.e.Y U ! W T U P Y B I W ( W *.D.G.n.w.-.' P ",
"I g.;X.XY.D.P.V.Z.D.Z.C.M.O.Z *.u.k.n.M.N.s.o.Q q.C.t.S g.-X'.l._ U G N F [ ].(.D.Z.6.P X.4.2.3.*.@.%.4.g.x.w.T c.8X#X[.I.L.b.] ",
"U y.{.`.K.J.C.I.H.H.V.N.n.{ C l.3X6X%XXX].R.t._ L +.` Y *X*XQ.D.M.r.] W ! ] I.K.G.C.2.G H.4X,X X[.J.g.U.H.N.<.G L.3X.XR.M.Z.j.{ ",
"Y 0.(.).F.S.A.Q.W.A.x.v.C.^ H k.5X.X_.].`.m.f.n.| E Z %.@X].L.F.H.H.n.O.T X.I.A.G.b.3.Z ^.-X/.(._.A.z.J.P.x.-.H T..XU.S.S.A.f.' ",
"Y <.F.H.D.C.M.G.M.m.b.V.M.<.G y.|.'.}.).H.v.Z.K.d.] U =.T.L.S.V.G.C.M.>.T >.K.V.v.n.;.G F.E.A.J.B.N.k.N.Z.n.#.U Y.R.C.A.C.n.h._ ",
"W E ] e.Z.x.b.v.n.C.m.j.>.D Z 4.[.].E.S.Z.F.J.N.t._ W [ S.G.C.D.m.M.C.9.L =.p.r.t.t.+.D 9.b.m.z.x.h.B.N.m.S.] U G.G.A.A.N.v.p.L ",
"^ ' ~ I ` q.g.w.1.%.$.Q k R R +.'.~.F.S.F.A.A.C.e.W P O.V.b.n.n.B.B.N.p.! ^ P S C B b Y R ~ ( W L R ! ^ P E V / 6.q.j.b.B.0.Y B ",
"+.R.G.2.J L U C m m N V $.S.| ] ).P.B.F.G.I.G.c.6.T T @.0.;.%...[ ^ Y I C W _ T E ~ { ( U L F H P J G F ! L Y ( R E T %. .m V ~ ",
"| oX Xy.~ ~ H L ! / ~ / n.L.,.P J.K.A.F.D.P.B.x.9.L <.E Y K B S D G H F _ l.B.o.Y l.m./ 1.G.L.A.c.j.{ y.0.! ^ U Y P P S b P ! E ",
" .@X.XH.N.k.7.[ W Q E / p.A.$.K B.A.N.F.J.J.l.C.r.H A. .Q $.r.V.V.d.5.) ! 8.2.K g.XXc./ b.9X-XU.L.s.! 8.) h.v.2.0.a.f.s.y.5.o.' ",
"[ `.].D.J.A.z.` Y g.L.2.E 7.' K M.F.F.F.Z.U.n.m.t.P <.` g.<X6XoX^.Z.G.g.] K N _ T.Z.n.Q G.3X(.K.B.0.E ) g.#X+X{..X_.T.G.F.H.b.X.",
"{ Y.Q.S.V.g.s.J @.5X&XA.5.W C E u.C.x.g.c.b.C.D.g.U P [ ,X4XOX].(.m.A.G.n.&.~ ..b.c.#.G P.OX(.F.Z.1.H 3._.+X%X}.|.Q.H.N.Z.m.k.{ ",
"o.T.S.n.v.n.2.c V.8X(.G.K.z.#.R ^ _ Q E P Y E Q _ Z W O.#X X'.U.J.S.D.I.H.C.;.U O.@.n ] /.].I.S.A.2.F r.}.}.`.T.H.L.D.H.C.m.l.Q ",
"/ r.c.M.A.N.) N N..XI.A.V.C.m.8.) P P J D G G G A T =.X.~.`.G.S.G.C.H.(.A.Z.g.O.Y Z U r. X_.D.C.C.6.N r.].W.J.D.F.H.D.D.D.b.d.Q ",
"U B ! 3.n.z.P J l.L.c.b.n.l.c.k.%.! ! &.;.*.O. .+.C.,.` L.S.Z.J.V.Z.D.P.P.m.d.O./ / +.~._.F.V.C.V.3.B y.L.A.D.A.F.S.H.C.m.N.r.H ",
"6. .I K G ! F ! 3.>._ ^ ) [ ] S B J <.XX[.U.I.L.G.N.+._ A.Z.m.n.B.n.b.c.I.A.z./ #.>.! h.N.d.m.N.H.e.D 9.S.M.v.Z.M.m.A.D.n.c. .z ",
"P.V.9.^ H L I ~ I J B B Z m H { } Y k.Y.Z.C.b.M.b.c.-.P e.k.v.x.v.f.v.b.B.C.M.' ( l.[ ] ,.2.R L E Q S @.=.( ^ <.n.v.C.W.B.0.f 6.",
"S.N.-.R j.(.F.6.~ ] 8.h.b.x.l.v.[ E @. .[ ` >.$.] / Y G ] ) [ [ ( ( W H L ! W M ( _ I U G v J J S B H W C M S W h.B.M.m.s.z ' ).",
"S.c.L Y H.}.J.a.I e.;X0X*XY.f.e.( I T P P L n b x m B L I J A C J A D H G S A K E T ' 8.5.h.D.V.g.u.0.&.*.=.^ ! [ O.%...C M '.|.",
"n.A.2.P -.I.M.%.M J.OX}./.S.c.8.^ l.f.o.T &.x.T.G.A.V.v.h.r.5.&._ ' =.-.*.*.=.%.] U p.oX=X3X>X X`.^.P.x.n.7.Q T P B m Z N w._.C.",
"b.C.p.U ~ s.Z.I / ~.[.E.Z.A.n.6.K W.K. .K q.{.&X:X=X-XXX`.^.H.y.I <.+X$X_.T.G.S.1.F Z.qX7X-X^.G.D.A.D.l.m.:.K i.v.z.,.) ~ +.c.M.",
"V.D.T N E Y  .D =.].^.S.H.V.c.7.I d.D.-.K ..x.f.M.L.F.F.B.v.B.7.G &.>X).C.V.G.C.6.F j.=X).F.P.J.D.F.H.B.B.7.P Z.~.M.7.T R I X.h.",
"y.;.j u.b.` P I 7._.L.A.E.M.v.e.H ' ` M F E C C  .M.M.b.D.A.S.e.m %.Y.L.C.m.H.C.r.K e.^.F.F.A.S.G.S.M.B.Y.i.K 3.v.:.c D ;.o.J T ",
"U X.^ 9.M.D.3.G >.R.G.K.V.h.b.8.H Q A *.g.p.:.T D ` -.O.{ ..[ F C O.l.d.q.S.H.B.t.F 3.H.B.S.v.v.b.n.M.C.].r.S ] { v J i.{.x.3.o.",
"k.w.U E [ ^ C I <.H.C.n.x.c.G.6.V | W.3X$X}.Q.c.>.W C B K F V G E W ] P 1.W.T.v.u.B ..f.x.b.v.c.M.N.V.N.D.i.I ^ Y P u.%X/.F.U.A.",
"B.y.I Q ~ _ ` W ^ <.d.c.C.N.F.9.B K.6X{.[.'.U.C.h.( ' c.).E.D.m.N.m.X.P n.m.D.M.} N o.;.%.=.$.<.3.5.9.y.q.r.T L ` s. X].A.S.Z.V.",
"b.q.L O.L.R.y.` 2.W ^ 2.0.0.:.F / 3X@X'.!.F.A.N.u.F 2.%X7X+X'..X.XR.-.I t.t.e.,.n U W I B m Z M n v v c n m M  .W.-X(.F.K.B.H.M.",
"m.w.F ,.{.R.j.) 8.J L A Z V n B 5.}.T.P.S.G.C.x.p.K ( J.{.).'.!.E.K.<.L ! C M b S U *.N.p.) R [ @.;.y.f.0.X.U 6.=X[.S.A.F.J.N.n.",
"v.4.m ,.].K.b.[ F $.d.t.+.| <.R -.V.S.H.G.N.v.S.*.M U e..XE.Z.C.N.v.q.L <.2.#.Q  .*. .s.Q ! j.{.|.{.XXW.P.c.~ ,.T.S.S.B.D.n.v.V.",
"' o.E B.).V.A.| | `._.C.[ :.Y.o.T 4.B.V.B.N.Z.c.k ! ` _ S.G.S.S.G.J.7.I [.P.2.U A.k.( G R J.#X%X'.).Y.S.D.j.T ` s.i.i.e.q.7.,. .",
"A o./ C.F.C.Z.} ' T.A.j.P p.A.f.+.Y #.f.l.j.m.=.z w.a./ ..f.F.C.K.D.y.L z.h.B <.'.h.E #.K.~.Y.P.K.A.Z.Z.J.c.L ! ^ H C Z c x m M ",
"X.4.T s.n.r.-./ Y b.h.X.S $./ K P A J P F b A V I ~ _ I U o.w.b.M.B.r.A 3./ U ^.G.l.E =.h.d.v.x.v.B.m.z.i.=.S ! Y K E ' &.+.[ X.",
"A.V.' o.{ V n H ~ ) L V L P o.1.6.q.w.$.+.3.-.( W ~ Y J { E H ] u.l.O.M / K M.D.B.g.R Y J A B H G D b C n m K W +.S.U.E.Q.F.A.H.",
"N.Z.] H P ) #.#...X._ E  .L.@X*X}..X.X_.'.].P.C.b.6.E c.B.! R G Y H z U Q 9.h.f.g.p.T K <.f.j.f.f.p.j.h.<.) Q  .^.@XJ.H.F.N.N.c.",
"N.V.^ ! q.~.oX|./.F.-.G ..!..XQ.K.Y.J.L.P.H.J.F.n.~ @.n.E *.e.( R G ( / ! } [ R G W G / H.#X$X|.{..XR.J.l.Q I 9.R.N.A.N.B.M.B.B."
};
